<svg xmlns="http://www.w3.org/2000/svg" xmlns:xlink="http://www.w3.org/1999/xlink" width="2000" zoomAndPan="magnify" viewBox="0 0 1500 1499.999933" height="2000" preserveAspectRatio="xMidYMid meet" version="1.0"><defs><g/><clipPath id="1ded114831"><path d="M 0.398438 260 L 557.441406 260 L 557.441406 852 L 0.398438 852 Z M 0.398438 260 " clip-rule="nonzero"/></clipPath><clipPath id="d5d1b6e208"><path d="M 0.738281 665.90625 L 326.304688 258.992188 L 557.835938 444.238281 L 232.273438 851.152344 Z M 0.738281 665.90625 " clip-rule="nonzero"/></clipPath><clipPath id="b895d8696e"><path d="M 54 52 L 459 52 L 459 464 L 54 464 Z M 54 52 " clip-rule="nonzero"/></clipPath><clipPath id="558ef9c454"><path d="M 0.738281 405.90625 L 326.304688 -1.007812 L 557.835938 184.238281 L 232.273438 591.152344 Z M 0.738281 405.90625 " clip-rule="nonzero"/></clipPath><clipPath id="d1b7d3098a"><path d="M 326.148438 -0.816406 L 0.585938 406.101562 L 232.117188 591.347656 L 557.683594 184.429688 Z M 326.148438 -0.816406 " clip-rule="nonzero"/></clipPath><clipPath id="185d2df324"><path d="M 326.148438 -0.816406 L 0.585938 406.101562 L 232.117188 591.347656 L 557.683594 184.429688 Z M 326.148438 -0.816406 " clip-rule="nonzero"/></clipPath><clipPath id="907043db6d"><path d="M 334 222 L 350 222 L 350 239 L 334 239 Z M 334 222 " clip-rule="nonzero"/></clipPath><clipPath id="2a1f19cefd"><path d="M 0.738281 405.90625 L 326.304688 -1.007812 L 557.835938 184.238281 L 232.273438 591.152344 Z M 0.738281 405.90625 " clip-rule="nonzero"/></clipPath><clipPath id="2b8966f257"><path d="M 326.148438 -0.816406 L 0.585938 406.101562 L 232.117188 591.347656 L 557.683594 184.429688 Z M 326.148438 -0.816406 " clip-rule="nonzero"/></clipPath><clipPath id="43e901cf6d"><path d="M 326.148438 -0.816406 L 0.585938 406.101562 L 232.117188 591.347656 L 557.683594 184.429688 Z M 326.148438 -0.816406 " clip-rule="nonzero"/></clipPath><clipPath id="4d9aef998a"><rect x="0" width="558" y="0" height="592"/></clipPath><clipPath id="ad77f1826a"><path d="M 248.855469 8.410156 L 475.433594 8.410156 L 475.433594 259.617188 L 248.855469 259.617188 Z M 248.855469 8.410156 " clip-rule="nonzero"/></clipPath><clipPath id="e5a08ecd54"><rect x="0" width="558" y="0" height="853"/></clipPath></defs><rect x="-150" width="1800" fill="#ffffff" y="-149.999993" height="1799.99992" fill-opacity="1"/><rect x="-150" width="1800" fill="#2e4a3f" y="-149.999993" height="1799.99992" fill-opacity="1"/><g transform="matrix(1, 0, 0, 1, 434, 365)"><g clip-path="url(#e5a08ecd54)"><g clip-path="url(#1ded114831)"><g clip-path="url(#d5d1b6e208)"><g transform="matrix(1, 0, 0, 1, 0, 260)"><g clip-path="url(#4d9aef998a)"><g clip-path="url(#b895d8696e)"><g clip-path="url(#558ef9c454)"><g clip-path="url(#d1b7d3098a)"><g clip-path="url(#185d2df324)"><path fill="#c2a878" d="M 448.277344 267.90625 C 437.183594 302.429688 423.703125 337.773438 400.851562 366.339844 C 397.839844 370.105469 394.71875 373.644531 391.355469 377.132812 C 387.21875 394.515625 379.367188 407.921875 371.65625 417.558594 C 353.289062 440.515625 342.476562 449.539062 336.5 446.769531 C 331.367188 444.386719 331.699219 434.449219 334.066406 419.816406 C 321.449219 426.25 308.199219 431.3125 294.84375 434.710938 C 278.617188 438.828125 263.84375 440.230469 250.246094 439.984375 C 249.703125 440.125 249.074219 440.195312 248.527344 440.335938 C 248.054688 440.386719 247.566406 440.28125 247.199219 439.84375 C 222.261719 438.863281 201.898438 432.339844 185.355469 427.152344 C 170.949219 422.527344 159.613281 418.914062 152.199219 421.894531 C 147.011719 424.066406 140.386719 429.832031 132.675781 436.597656 C 117.695312 449.757812 98.90625 466.050781 80.558594 463.300781 C 70.816406 461.828125 62.074219 454.976562 54.589844 442.953125 C 54.378906 442.5 54.238281 441.953125 54.503906 441.445312 C 54.695312 441.027344 55.132812 440.65625 55.695312 440.675781 C 70.675781 439.011719 74.726562 431.617188 80.367188 421.332031 C 83.890625 414.953125 87.871094 407.644531 95.386719 400.582031 C 111.265625 385.40625 124.039062 382.550781 133.046875 383.867188 C 123.023438 373.402344 117.925781 359.839844 112.949219 346.660156 C 106.449219 329.101562 100.210938 312.472656 82.671875 306.914062 C 82.003906 306.671875 81.617188 306.074219 81.636719 305.515625 C 81.636719 304.796875 82.058594 304.269531 82.757812 304.113281 C 83.144531 303.988281 120.242188 295.160156 141.183594 324.847656 C 149.609375 336.761719 154.585938 349.222656 159.074219 360.140625 C 165.574219 376.261719 170.65625 388.949219 183.464844 393.59375 C 194.75 397.449219 209.855469 394.734375 222.125 386.585938 C 239.964844 374.707031 250.847656 352.660156 252.757812 324.589844 C 256.214844 273.75 273.832031 161.386719 315.136719 99.878906 C 333.941406 72.246094 348.574219 58.085938 362.382812 53.757812 C 370.183594 51.375 379.628906 50.167969 401.09375 63.75 C 428.570312 81.136719 481.261719 164.535156 448.03125 267.855469 Z M 294.214844 431.90625 C 308.113281 428.367188 321.726562 423.023438 334.785156 416.226562 C 335.378906 412.964844 335.957031 409.550781 336.675781 405.957031 C 337.183594 403.347656 337.710938 400.890625 338.167969 398.527344 C 329.964844 404.46875 303.539062 422.410156 271.890625 429.996094 C 267.492188 432.800781 263.214844 435.269531 259.097656 437.003906 C 269.910156 436.601562 281.632812 435.0625 294.058594 431.925781 Z M 335.855469 347.53125 C 334.175781 351.070312 331.5625 356.3125 328.460938 362.164062 C 333.085938 358.535156 336.222656 355.15625 336.574219 354.714844 C 336.3125 352.351562 336.050781 349.984375 335.855469 347.53125 Z M 325.339844 367.859375 C 319.664062 378.546875 312.828125 390.324219 306.921875 398.246094 C 306.359375 398.945312 305.800781 399.648438 305.238281 400.347656 C 303.90625 402.011719 302.503906 403.765625 300.859375 405.464844 C 325.355469 391.726562 338.816406 376.339844 338.957031 376.167969 C 338.957031 376.167969 339.027344 376.078125 339.097656 375.992188 C 338.765625 372.277344 338.1875 368.507812 337.660156 364.496094 C 337.363281 362.53125 337.136719 360.480469 336.90625 358.429688 C 334.683594 360.675781 330.476562 364.496094 325.253906 367.789062 Z M 294.882812 412.035156 C 294.742188 412.210938 294.496094 412.160156 294.339844 412.175781 C 289.640625 416.609375 284.542969 421.007812 279.230469 424.949219 C 312.457031 415.03125 338.167969 394.933594 338.972656 394.285156 C 339.726562 389.570312 339.761719 384.859375 339.550781 380.089844 C 334.539062 385.277344 319.011719 400.015625 294.96875 412.105469 Z M 363.507812 56.667969 C 350.539062 60.664062 336.082031 74.960938 317.890625 101.648438 C 276.84375 162.648438 259.472656 274.347656 255.984375 324.867188 C 254.019531 353.90625 242.660156 376.722656 224.015625 389.25 C 210.855469 397.976562 195.117188 400.761719 182.675781 396.554688 C 168.621094 391.492188 162.925781 377.59375 156.496094 361.382812 C 152.1875 350.605469 147.226562 338.304688 138.992188 326.6875 C 123.746094 305.148438 99.386719 305.058594 88.820312 306.234375 C 103.925781 313.574219 109.742188 329.296875 115.964844 345.769531 C 121.414062 360.332031 127.003906 375.4375 139.480469 385.707031 C 140.003906 386.128906 140.179688 386.984375 139.847656 387.582031 C 139.355469 388.195312 138.671875 388.511719 138.007812 388.265625 C 129.839844 385.179688 116.261719 385.09375 97.648438 402.964844 C 90.5 409.746094 86.574219 416.808594 83.191406 423.011719 C 77.878906 432.703125 73.148438 441.132812 58.566406 443.550781 C 65.367188 453.730469 72.78125 459.375 81.226562 460.671875 C 98.1875 463.179688 116.308594 447.355469 130.941406 434.632812 C 138.882812 427.765625 145.714844 421.738281 151.359375 419.355469 C 159.683594 415.953125 170.933594 419.496094 186.496094 424.472656 C 203.300781 429.871094 224.398438 436.546875 250.089844 437.128906 C 256.152344 435.65625 263.335938 432.0625 270.558594 427.351562 C 283.4375 418.976562 296.632812 406.972656 304.414062 396.527344 C 317.558594 379.023438 335.226562 341.855469 335.347656 341.519531 C 334.980469 329.585938 336.050781 316.214844 341.152344 300.320312 C 341.378906 299.5 342.203125 299.007812 343.042969 299.394531 C 343.867188 299.621094 344.359375 300.445312 343.972656 301.285156 C 335.558594 327.605469 338.203125 347.109375 340.605469 364.40625 C 342.109375 375.097656 343.390625 385.171875 341.792969 395.25 C 341.285156 398.578125 340.445312 402.503906 339.636719 406.746094 C 336.886719 420.78125 332.699219 442.003906 337.742188 444.316406 C 340.179688 445.402344 347.433594 443.160156 369.234375 415.914062 C 391.039062 388.664062 393.652344 343.1875 386.957031 315.992188 C 379.6875 286.460938 365.84375 264.609375 365.582031 264.398438 C 365.109375 263.734375 365.320312 262.75 366.070312 262.347656 C 366.738281 261.875 367.71875 262.085938 368.121094 262.839844 C 368.210938 262.910156 372.574219 269.847656 377.742188 281.171875 C 385.472656 256.601562 376.359375 237.097656 368.28125 219.710938 C 363.359375 209.164062 358.734375 199.140625 358.523438 189.34375 C 358.382812 175.867188 362.851562 162.199219 367.148438 149.109375 C 371.089844 137.175781 374.789062 125.90625 374.367188 116.375 C 373.527344 95.152344 383.0625 76.769531 399.992188 66.746094 C 399.902344 66.675781 399.726562 66.535156 399.640625 66.464844 C 385.570312 57.652344 375.175781 53.214844 363.367188 56.84375 Z M 381.046875 93.835938 C 381.851562 94.625 427.324219 143.222656 432.089844 205.519531 C 436.800781 268.066406 394.175781 329.957031 393.84375 330.554688 C 393.703125 330.730469 393.492188 330.992188 393.179688 331.027344 C 393.808594 335.265625 394.175781 339.296875 394.386719 343.347656 C 402.449219 333.269531 440.636719 282.488281 443.847656 206.449219 C 445.671875 162.5 430.796875 129.90625 418.003906 110.328125 C 405.984375 91.945312 393.542969 81.273438 390.300781 78.679688 C 386.320312 83.113281 383.289062 88.160156 381.132812 93.90625 Z M 369.84375 151.125 C 371.351562 153.191406 380.867188 166.984375 387.15625 189.117188 C 393.253906 210.953125 397.144531 245.246094 380.652344 285.078125 C 380.582031 285.164062 380.511719 285.253906 380.371094 285.429688 C 380.230469 285.605469 380.160156 285.691406 380.089844 285.777344 C 381.808594 289.738281 383.488281 294.101562 385.117188 298.710938 C 411.722656 238.519531 407.816406 194.007812 399.722656 167.125 C 392.835938 143.941406 381.65625 129.535156 377.101562 124.453125 C 375.980469 132.320312 373.191406 141.011719 370.265625 149.878906 C 370.074219 150.300781 370.039062 150.703125 369.84375 151.125 Z M 368.636719 154.609375 C 364.957031 166.035156 361.539062 177.671875 361.765625 189.0625 C 361.90625 198.226562 366.40625 207.867188 371.226562 218.1875 C 377.851562 232.539062 385.191406 248.332031 383.699219 267.257812 C 392.851562 235.34375 389.433594 208.183594 384.300781 189.992188 C 379.253906 171.871094 371.789062 159.289062 368.636719 154.609375 Z M 377.453125 120.421875 C 379.886719 122.945312 394.011719 137.980469 402.472656 166.019531 C 417.648438 216.386719 402.292969 267.90625 386.714844 302.285156 C 386.644531 302.375 386.574219 302.460938 386.503906 302.550781 C 386.433594 302.636719 386.433594 302.636719 386.363281 302.726562 C 387.675781 306.652344 388.851562 310.75 389.882812 315.027344 C 390.902344 319.144531 391.742188 323.125 392.335938 327.046875 C 399.015625 316.726562 433.171875 261.28125 428.984375 205.625 C 424.75 149.496094 386.636719 104.632812 379.800781 97.007812 C 377.980469 102.878906 377.101562 109.363281 377.363281 116.039062 C 377.363281 117.476562 377.363281 118.914062 377.292969 120.4375 Z M 402.898438 68.5 C 398.992188 70.6875 395.382812 73.40625 392.28125 76.382812 C 395.960938 79.328125 408.242188 90.019531 420.351562 108.472656 C 433.421875 128.414062 448.6875 161.605469 446.789062 206.363281 C 443.527344 281.925781 406.25 333.007812 397.066406 344.484375 C 395.804688 346.0625 395.105469 346.9375 395.105469 346.9375 C 394.964844 347.113281 394.824219 347.289062 394.507812 347.324219 C 394.753906 356 394.054688 364.058594 392.703125 371.316406 C 408.492188 353.914062 425.789062 327.804688 445.527344 266.855469 C 476.96875 169.003906 430.375 89.476562 402.898438 68.5 Z M 402.898438 68.5 " fill-opacity="1" fill-rule="nonzero"/></g></g></g></g><g clip-path="url(#907043db6d)"><g clip-path="url(#2a1f19cefd)"><g clip-path="url(#2b8966f257)"><g clip-path="url(#43e901cf6d)"><path fill="#c2a878" d="M 337.332031 236.480469 C 337.730469 236.800781 338.15625 237.074219 338.605469 237.308594 C 339.058594 237.542969 339.527344 237.730469 340.015625 237.871094 C 340.503906 238.015625 341 238.105469 341.507812 238.148438 C 342.015625 238.195312 342.519531 238.1875 343.027344 238.132812 C 343.53125 238.074219 344.027344 237.96875 344.511719 237.816406 C 344.996094 237.664062 345.460938 237.464844 345.90625 237.21875 C 346.351562 236.972656 346.769531 236.6875 347.15625 236.359375 C 347.546875 236.03125 347.898438 235.667969 348.214844 235.273438 C 348.535156 234.875 348.808594 234.453125 349.042969 234 C 349.277344 233.550781 349.464844 233.078125 349.605469 232.589844 C 349.75 232.101562 349.839844 231.605469 349.882812 231.097656 C 349.929688 230.59375 349.921875 230.085938 349.867188 229.582031 C 349.808594 229.074219 349.703125 228.582031 349.550781 228.097656 C 349.398438 227.613281 349.199219 227.148438 348.953125 226.703125 C 348.707031 226.257812 348.421875 225.839844 348.09375 225.449219 C 347.765625 225.0625 347.40625 224.707031 347.007812 224.390625 C 346.609375 224.074219 346.1875 223.796875 345.734375 223.5625 C 345.285156 223.328125 344.8125 223.140625 344.324219 223 C 343.835938 222.859375 343.339844 222.765625 342.832031 222.722656 C 342.328125 222.679688 341.820312 222.683594 341.316406 222.742188 C 340.8125 222.796875 340.316406 222.902344 339.832031 223.054688 C 339.347656 223.210938 338.882812 223.410156 338.4375 223.652344 C 337.992188 223.898438 337.574219 224.183594 337.183594 224.511719 C 336.796875 224.839844 336.441406 225.203125 336.125 225.597656 C 335.808594 225.996094 335.53125 226.421875 335.296875 226.871094 C 335.0625 227.324219 334.875 227.792969 334.734375 228.28125 C 334.59375 228.769531 334.5 229.265625 334.457031 229.773438 C 334.414062 230.28125 334.417969 230.785156 334.476562 231.289062 C 334.53125 231.796875 334.636719 232.289062 334.789062 232.773438 C 334.945312 233.261719 335.144531 233.726562 335.386719 234.171875 C 335.632812 234.617188 335.921875 235.03125 336.246094 235.421875 C 336.574219 235.8125 336.9375 236.164062 337.332031 236.480469 Z M 337.332031 236.480469 " fill-opacity="1" fill-rule="nonzero"/></g></g></g></g></g></g></g></g><g clip-path="url(#ad77f1826a)"><path fill="#c2a878" d="M 313.007812 46.132812 C 310.289062 43.648438 309.136719 40.683594 309.144531 37.816406 C 309.152344 34.855469 310.382812 31.898438 312.523438 29.46875 C 316.816406 24.597656 324.804688 21.8125 333.371094 25.714844 C 332.261719 18.40625 334.445312 13.695312 337.882812 11.0625 C 342.496094 7.527344 349.664062 7.675781 355.214844 10.625 C 359.550781 12.929688 362.878906 16.871094 363.304688 21.917969 C 370.015625 15.535156 376.851562 14.476562 382.488281 16.148438 C 388.011719 17.78125 392.449219 22.113281 394.625 26.941406 C 396.125 30.261719 396.550781 33.804688 395.632812 36.890625 C 394.46875 40.804688 391.136719 44.144531 384.773438 45.226562 C 387.027344 46.386719 389.023438 47.613281 390.742188 48.882812 C 392.386719 42.777344 397.328125 37.410156 403.621094 36.21875 C 407.054688 35.570312 410.921875 36.136719 414.882812 38.5625 C 414.085938 35.023438 414.605469 31.980469 415.945312 29.496094 C 417.808594 26.042969 421.335938 23.605469 425.457031 22.402344 C 431.492188 20.640625 438.757812 21.542969 443.570312 25.433594 C 447.839844 28.890625 450.339844 34.703125 448.214844 43.222656 C 452.449219 40.996094 456.371094 40.46875 459.824219 41.050781 C 467.316406 42.320312 472.722656 48.941406 474.496094 55.808594 C 475.710938 60.507812 475.207031 65.277344 472.726562 68.558594 C 471.035156 70.796875 468.402344 72.417969 464.667969 72.816406 C 467.546875 75.046875 469.34375 77.644531 470.296875 80.347656 C 472.074219 85.382812 470.925781 90.859375 468.117188 95.222656 C 465.316406 99.585938 460.871094 102.804688 456.195312 103.429688 C 455.1875 103.566406 454.160156 103.585938 453.128906 103.472656 C 451.621094 105.988281 449.566406 108.324219 447.136719 110.484375 C 456.308594 107.742188 465.484375 108.269531 474.875 113.203125 C 475.390625 113.476562 475.710938 114.007812 475.703125 114.589844 C 475.628906 123.6875 470.765625 128.855469 463.351562 131.996094 C 463.417969 132.042969 463.488281 132.09375 463.550781 132.152344 C 464.554688 133.078125 465.359375 135.210938 465.734375 138.101562 C 466.476562 143.863281 465.902344 152.898438 464.671875 159.152344 C 464.113281 161.996094 463.394531 164.285156 462.636719 165.535156 C 462.09375 166.441406 461.445312 166.933594 460.863281 167.121094 C 458.277344 167.957031 455.691406 168.75 453.101562 169.5 C 450.824219 193.898438 446.21875 227.613281 440.613281 242.902344 C 439.5625 245.773438 436.792969 248.34375 432.570312 250.46875 C 426.773438 253.378906 418.144531 255.554688 407.945312 256.996094 C 380.554688 260.855469 341.71875 259.472656 316.792969 253.664062 C 305.769531 251.09375 297.429688 247.578125 293.734375 243.394531 C 291.125 240.4375 289.050781 234.789062 287.410156 227.570312 C 283.75 211.449219 281.992188 187.300781 279.214844 169.410156 C 279.179688 169.199219 279.191406 168.984375 279.246094 168.789062 C 276.777344 168.195312 274.308594 167.582031 271.839844 166.953125 C 270.066406 166.5 268.519531 164.785156 267.488281 162.167969 C 265.675781 157.574219 265.207031 150.09375 265.972656 144.71875 C 259.457031 142.789062 254.136719 138.777344 251.132812 131.015625 C 250.917969 130.464844 251.039062 129.839844 251.441406 129.402344 C 255.636719 124.882812 260.792969 121.507812 266.382812 119.339844 C 263.910156 117.160156 262.132812 114.253906 261.640625 110.917969 C 261.128906 107.460938 261.976562 103.492188 264.996094 99.371094 C 260.289062 99.46875 256.632812 98.019531 254.003906 95.738281 C 250.628906 92.804688 248.925781 88.441406 248.949219 83.929688 C 248.996094 75.90625 254.492188 67.363281 265.582031 66.050781 C 263.808594 63.828125 262.929688 61.546875 262.726562 59.335938 C 262.296875 54.738281 264.804688 50.339844 268.753906 47.191406 C 275.1875 42.058594 285.300781 40.382812 291.5 46.140625 C 293.542969 48.035156 295.191406 50.753906 296.121094 54.472656 C 297.539062 51.867188 299.34375 49.925781 301.34375 48.546875 C 304.902344 46.097656 309.105469 45.441406 313.007812 46.132812 Z M 269.515625 121.511719 C 263.886719 123.351562 258.644531 126.464844 254.390625 130.800781 C 257.246094 137.390625 262.171875 140.625 268.105469 142.082031 C 275.265625 143.84375 283.820312 143.105469 292.109375 142.414062 C 292.128906 142.410156 292.148438 142.410156 292.167969 142.40625 C 300.546875 141.707031 308.65625 141.101562 314.964844 142.757812 C 313.410156 140.21875 312.023438 137.664062 310.621094 135.273438 C 308.570312 131.773438 306.515625 128.636719 303.75 126.558594 C 298.71875 122.777344 292.769531 120.550781 286.609375 119.8125 C 281.964844 124.410156 274.957031 124.4375 269.515625 121.511719 Z M 288.789062 116.992188 C 290.957031 117.351562 293.089844 117.882812 295.167969 118.589844 C 293.332031 117.375 291.675781 115.683594 290.355469 113.46875 C 289.933594 114.789062 289.402344 115.960938 288.789062 116.992188 Z M 300.132812 120.675781 C 302.042969 121.640625 303.878906 122.777344 305.609375 124.078125 C 306.289062 124.589844 306.929688 125.152344 307.539062 125.761719 C 307.140625 124.152344 306.898438 122.40625 306.835938 120.507812 C 304.707031 121.082031 302.394531 121.15625 300.132812 120.675781 Z M 309.871094 119.285156 C 309.902344 119.40625 309.921875 119.539062 309.921875 119.671875 C 309.984375 134.707031 322.894531 139.167969 334.027344 141.660156 C 337.445312 142.425781 340.726562 143 343.503906 143.59375 C 341.554688 142.457031 339.28125 141.273438 336.886719 139.921875 C 328.214844 135.027344 318.074219 128.054688 314.804688 114.101562 C 314.132812 115.484375 313.214844 116.675781 312.140625 117.65625 C 311.449219 118.28125 310.6875 118.828125 309.871094 119.285156 Z M 315.941406 106.628906 C 325.15625 108.464844 333.539062 111.203125 340.714844 115.0625 C 339.121094 110.585938 337.804688 105.859375 337.0625 101.25 C 335.355469 99.902344 333.882812 99.15625 332.367188 98.613281 C 328.742188 101.957031 322.726562 103.480469 314.148438 100.515625 C 315.140625 102.703125 315.714844 104.746094 315.941406 106.628906 Z M 330.792969 95.8125 C 330.800781 95.800781 330.808594 95.789062 330.820312 95.777344 C 334.414062 91.851562 334.453125 85.242188 331.394531 80.496094 C 327.855469 80.363281 324.339844 78.769531 321.566406 76.273438 C 321.066406 75.824219 320.59375 75.351562 320.152344 74.851562 C 318.832031 74.886719 317.425781 75.082031 315.933594 75.453125 C 315.226562 75.628906 314.492188 75.292969 314.171875 74.640625 C 313.847656 73.988281 314.019531 73.199219 314.585938 72.746094 C 315.574219 71.945312 316.460938 71.152344 317.253906 70.359375 C 316.402344 68.410156 315.949219 66.304688 316.023438 64.171875 C 316.140625 60.820312 317.546875 57.332031 320.863281 54.25 C 317.265625 49.113281 309.054688 47 303.101562 51.101562 C 300.3125 53.019531 298.050781 56.300781 296.894531 61.207031 C 296.71875 61.964844 296.003906 62.472656 295.230469 62.394531 C 294.457031 62.3125 293.859375 61.671875 293.835938 60.894531 C 293.640625 53.691406 291.273438 49.355469 287.835938 47.222656 C 282.699219 44.042969 275.472656 45.796875 270.6875 49.613281 C 267.59375 52.082031 265.476562 55.445312 265.8125 59.050781 C 266.035156 61.453125 267.363281 63.910156 270.085938 66.261719 C 270.578125 66.6875 270.75 67.378906 270.519531 67.988281 C 270.285156 68.597656 269.695312 68.996094 269.042969 68.984375 C 257.785156 68.777344 252.09375 76.554688 252.050781 83.949219 C 252.03125 87.550781 253.34375 91.054688 256.039062 93.398438 C 258.78125 95.78125 262.921875 96.917969 268.417969 95.90625 C 269.082031 95.78125 269.75 96.105469 270.066406 96.703125 C 270.382812 97.300781 270.277344 98.035156 269.800781 98.515625 C 265.574219 102.796875 264.183594 106.921875 264.707031 110.464844 C 265.214844 113.917969 267.523438 116.746094 270.476562 118.496094 C 274.988281 121.167969 281.089844 121.378906 284.859375 117.15625 C 286.644531 115.15625 287.882812 112.199219 288.273438 108.148438 C 288.34375 107.40625 288.929688 106.820312 289.671875 106.753906 C 290.410156 106.683594 291.09375 107.148438 291.304688 107.863281 C 294.386719 118.46875 304.820312 120.125 310.054688 115.363281 C 313.589844 112.148438 314.4375 106.15625 309.386719 98.261719 C 309.015625 97.683594 309.074219 96.925781 309.53125 96.40625 C 309.984375 95.886719 310.726562 95.734375 311.351562 96.027344 C 320.992188 100.550781 327.394531 99.488281 330.792969 95.8125 Z M 323.285156 52.316406 C 323.785156 51.96875 324.3125 51.632812 324.875 51.304688 C 323.792969 51.105469 322.777344 50.875 321.820312 50.613281 C 322.355469 51.144531 322.84375 51.714844 323.285156 52.316406 Z M 282.367188 169.527344 C 285.085938 187.289062 286.828125 211 290.433594 226.882812 C 291.925781 233.453125 293.679688 238.652344 296.058594 241.34375 C 299.476562 245.21875 307.289062 248.265625 317.496094 250.644531 C 342.113281 256.382812 380.460938 257.738281 407.511719 253.925781 C 417.3125 252.542969 425.613281 250.496094 431.179688 247.699219 C 434.535156 246.011719 436.867188 244.117188 437.703125 241.835938 C 443.160156 226.960938 447.617188 194.441406 449.90625 170.410156 C 394.15625 185.890625 338.257812 182.589844 282.367188 169.527344 Z M 451.28125 135.300781 C 441.660156 137 430.5 137.578125 420.796875 139.613281 C 416.144531 140.585938 411.835938 141.890625 408.238281 143.859375 C 423.503906 142.007812 437.996094 139.199219 451.28125 135.300781 Z M 402.691406 147.601562 C 394.292969 148.476562 385.683594 149.074219 376.933594 149.410156 C 349.40625 150.476562 320.46875 148.980469 292.238281 145.511719 C 284.269531 146.179688 276.066406 146.816406 268.996094 145.449219 C 268.449219 149.558594 268.667969 154.925781 269.714844 158.976562 C 270.085938 160.402344 270.554688 161.660156 271.148438 162.609375 C 271.570312 163.28125 272.019531 163.800781 272.605469 163.953125 C 335.046875 179.871094 397.511719 184.269531 459.777344 164.214844 C 459.851562 164.109375 460.078125 163.789062 460.207031 163.519531 C 460.746094 162.386719 461.21875 160.636719 461.628906 158.550781 C 462.800781 152.597656 463.367188 143.988281 462.65625 138.496094 C 462.519531 137.402344 462.328125 136.441406 462.074219 135.664062 C 462.011719 135.480469 461.953125 135.308594 461.890625 135.152344 C 444.28125 141.316406 424.175781 145.367188 402.691406 147.601562 Z M 417.535156 133.25 C 417.519531 133.269531 417.5 133.289062 417.480469 133.304688 C 417.441406 133.34375 417.402344 133.382812 417.359375 133.414062 C 415.4375 135.195312 413.507812 137.054688 411.566406 138.984375 C 414.234375 137.996094 417.128906 137.214844 420.160156 136.578125 C 430.933594 134.320312 443.5 133.859375 453.765625 131.660156 C 464.054688 129.460938 472.027344 125.566406 472.574219 115.511719 C 461.335938 109.945312 450.421875 111.273438 439.402344 117.019531 C 432.191406 120.78125 424.945312 126.402344 417.535156 133.25 Z M 415.261719 131.144531 C 415.273438 131.132812 415.285156 131.117188 415.296875 131.105469 C 422.691406 123.769531 425.1875 116.328125 423.90625 109.894531 C 420.488281 110.296875 416.636719 110.113281 412.683594 109.914062 C 412.621094 109.914062 412.554688 109.910156 412.492188 109.902344 C 411.289062 109.84375 410.078125 109.78125 408.867188 109.734375 C 406.207031 109.632812 403.550781 109.597656 401.015625 109.847656 C 400.902344 109.871094 400.789062 109.882812 400.671875 109.882812 C 398.144531 110.15625 395.742188 110.71875 393.585938 111.785156 C 389.960938 113.578125 387.011719 116.984375 384.683594 121.308594 C 381.035156 128.078125 378.929688 137.082031 378.355469 146.105469 C 378.355469 146.15625 378.355469 146.203125 378.359375 146.253906 C 386.3125 145.917969 394.144531 145.363281 401.800781 144.578125 C 406.355469 139.761719 410.835938 135.242188 415.261719 131.144531 Z M 449.972656 102.675781 C 447.195312 101.5625 444.523438 99.3125 442.265625 95.570312 C 441.683594 98.023438 440.695312 100.058594 439.445312 101.699219 C 436.226562 105.933594 431.257812 107.59375 426.714844 106.964844 C 426.425781 106.921875 426.136719 106.875 425.851562 106.816406 C 426.191406 107.011719 426.457031 107.332031 426.570312 107.734375 C 427.605469 111.367188 427.617188 115.34375 426.367188 119.476562 C 435.84375 115.230469 445.285156 109.824219 449.972656 102.675781 Z M 457.285156 72.21875 C 457.238281 72.207031 457.191406 72.195312 457.140625 72.183594 C 456.3125 71.984375 455.796875 71.148438 455.996094 70.316406 C 456.191406 69.484375 457.03125 68.96875 457.863281 69.167969 C 464.132812 70.664062 468.152344 69.46875 470.253906 66.691406 C 472.214844 64.09375 472.457031 60.300781 471.496094 56.585938 C 470.011719 50.828125 465.585938 45.171875 459.304688 44.109375 C 455.542969 43.46875 451.15625 44.515625 446.363281 48.042969 C 445.8125 48.453125 445.054688 48.445312 444.503906 48.027344 C 443.957031 47.609375 443.753906 46.878906 444 46.234375 C 447.496094 37.203125 445.746094 31.179688 441.621094 27.84375 C 437.5625 24.5625 431.414062 23.894531 426.324219 25.378906 C 423.03125 26.339844 420.160156 28.210938 418.671875 30.96875 C 417.078125 33.921875 417.15625 37.835938 419.769531 42.609375 C 420.140625 43.285156 419.957031 44.128906 419.339844 44.59375 C 418.726562 45.054688 417.863281 44.996094 417.316406 44.449219 C 412.730469 39.882812 408.152344 38.519531 404.195312 39.265625 C 398.558594 40.332031 394.3125 45.558594 393.421875 51.128906 C 394.332031 52 395.113281 52.890625 395.757812 53.796875 C 397.726562 56.566406 398.488281 59.488281 397.898438 62.503906 C 400.003906 64.089844 402.859375 65.292969 406.578125 65.921875 C 406.644531 65.933594 406.710938 65.949219 406.777344 65.96875 C 407.03125 66.039062 407.253906 66.171875 407.429688 66.347656 C 407.609375 66.523438 407.75 66.742188 407.828125 66.996094 C 407.871094 67.136719 407.894531 67.285156 407.894531 67.441406 C 407.898438 67.59375 407.875 67.742188 407.835938 67.886719 C 407.761719 68.140625 407.628906 68.363281 407.453125 68.539062 C 407.277344 68.71875 407.058594 68.859375 406.808594 68.9375 C 406.742188 68.957031 406.675781 68.972656 406.609375 68.984375 C 398.488281 70.542969 394.835938 74.371094 394.292969 78.683594 C 393.851562 82.175781 395.414062 85.851562 397.988281 88.5625 C 399.386719 90.035156 401.089844 91.234375 402.964844 91.953125 C 403.019531 91.96875 403.074219 91.988281 403.125 92.011719 C 404.648438 92.574219 406.285156 92.820312 407.949219 92.636719 C 411.242188 92.28125 414.609375 90.257812 417.5625 85.957031 C 417.855469 85.527344 418.328125 85.292969 418.808594 85.285156 C 419.011719 85.277344 419.21875 85.3125 419.414062 85.386719 C 420.210938 85.699219 420.609375 86.597656 420.300781 87.394531 C 418.363281 92.382812 418.574219 96.359375 420.121094 99.195312 C 421.597656 101.894531 424.261719 103.492188 427.140625 103.894531 C 433.105469 104.722656 439.835938 100.378906 439.742188 90.15625 C 439.734375 89.300781 440.421875 88.601562 441.277344 88.59375 C 441.976562 88.585938 442.570312 89.042969 442.769531 89.679688 C 442.863281 89.792969 442.945312 89.929688 443.003906 90.074219 C 446.277344 98.1875 451.109375 100.984375 455.785156 100.359375 C 459.617188 99.84375 463.210938 97.128906 465.511719 93.546875 C 467.808594 89.972656 468.828125 85.503906 467.375 81.378906 C 466.105469 77.785156 462.972656 74.519531 457.371094 72.253906 C 457.34375 72.242188 457.3125 72.230469 457.285156 72.21875 Z M 362.589844 27.253906 C 362.5625 27.289062 362.53125 27.324219 362.5 27.355469 C 362.320312 27.550781 362.097656 27.6875 361.855469 27.765625 C 361.617188 27.84375 361.359375 27.867188 361.097656 27.816406 C 360.953125 27.792969 360.808594 27.746094 360.675781 27.675781 C 360.539062 27.609375 360.417969 27.519531 360.3125 27.417969 C 360.117188 27.238281 359.980469 27.015625 359.902344 26.777344 C 359.824219 26.535156 359.800781 26.277344 359.851562 26.015625 C 359.859375 25.972656 359.867188 25.925781 359.878906 25.882812 C 361.34375 20.148438 358.164062 15.703125 353.761719 13.363281 C 349.28125 10.984375 343.492188 10.667969 339.765625 13.523438 C 336.554688 15.980469 335.097656 20.742188 337.066406 28.285156 C 337.230469 28.902344 336.996094 29.554688 336.480469 29.929688 C 335.964844 30.304688 335.269531 30.328125 334.734375 29.984375 C 326.6875 24.835938 318.839844 26.988281 314.851562 31.515625 C 313.226562 33.359375 312.25 35.582031 312.242188 37.828125 C 312.234375 40.28125 313.421875 42.714844 316.074219 44.671875 C 319.03125 46.847656 323.695312 48.402344 330.4375 48.863281 C 331.164062 48.914062 331.757812 49.457031 331.867188 50.175781 C 331.976562 50.894531 331.570312 51.59375 330.894531 51.855469 C 327.984375 52.980469 325.679688 54.285156 323.914062 55.707031 C 323.871094 55.746094 323.824219 55.78125 323.777344 55.816406 C 320.628906 58.398438 319.226562 61.347656 319.121094 64.28125 C 319.050781 66.222656 319.546875 68.125 320.4375 69.855469 C 320.472656 69.914062 320.503906 69.972656 320.53125 70.035156 C 320.953125 70.824219 321.457031 71.574219 322.023438 72.273438 C 322.046875 72.300781 322.070312 72.328125 322.09375 72.359375 C 322.566406 72.929688 323.085938 73.472656 323.636719 73.96875 C 326.023438 76.113281 329.074219 77.488281 332.113281 77.40625 C 332.144531 77.402344 332.179688 77.402344 332.210938 77.402344 C 332.628906 77.386719 333.042969 77.34375 333.457031 77.269531 C 336.414062 76.753906 339.191406 74.707031 341.226562 70.667969 C 341.320312 70.484375 341.445312 70.324219 341.589844 70.199219 C 341.855469 69.144531 342.226562 68.03125 342.710938 66.863281 C 343.039062 66.070312 343.945312 65.699219 344.734375 66.023438 C 345.527344 66.351562 345.902344 67.257812 345.574219 68.050781 C 343.113281 73.988281 344.085938 78.03125 346.875 80.242188 C 348.84375 81.800781 351.59375 82.425781 354.390625 82.238281 C 356.082031 82.128906 357.792969 81.71875 359.371094 81.011719 C 359.4375 80.976562 359.507812 80.945312 359.578125 80.917969 C 361.148438 80.183594 362.578125 79.152344 363.707031 77.832031 C 363.726562 77.804688 363.746094 77.78125 363.769531 77.757812 C 364.101562 77.359375 364.410156 76.929688 364.6875 76.480469 C 366.132812 74.117188 366.691406 71.042969 365.835938 67.300781 C 365.664062 66.535156 366.089844 65.761719 366.828125 65.496094 C 367.566406 65.234375 368.386719 65.5625 368.734375 66.265625 C 370.84375 70.496094 373.714844 72.773438 376.835938 73.570312 C 380.496094 74.507812 384.429688 73.429688 387.703125 71.332031 C 391.011719 69.210938 393.671875 66.035156 394.667969 62.671875 C 394.671875 62.660156 394.675781 62.644531 394.679688 62.628906 C 395.589844 59.515625 394.40625 56.5625 391.730469 53.808594 C 391.433594 53.5 391.113281 53.195312 390.78125 52.894531 C 390.757812 52.875 390.738281 52.855469 390.71875 52.835938 C 387.6875 50.121094 383.242188 47.640625 377.738281 45.441406 C 377.03125 45.160156 376.632812 44.410156 376.796875 43.671875 C 376.957031 42.929688 377.632812 42.417969 378.386719 42.453125 C 387.027344 42.886719 391.445312 40.101562 392.664062 36.007812 C 393.382812 33.589844 392.976562 30.816406 391.800781 28.214844 C 389.96875 24.15625 386.253906 20.496094 381.605469 19.117188 C 376.019531 17.464844 369.171875 19.21875 362.589844 27.253906 Z M 320.277344 145.167969 C 327.359375 145.695312 334.441406 146.085938 341.492188 146.335938 C 337.320312 145.492188 332.222656 144.617188 327.269531 143.101562 C 323.011719 141.800781 318.875 140.03125 315.445312 137.460938 C 316.902344 140.015625 318.441406 142.648438 320.261719 145.148438 C 320.265625 145.15625 320.273438 145.160156 320.277344 145.167969 Z M 351.65625 146.59375 C 355.101562 146.644531 358.535156 146.660156 361.957031 146.640625 C 361.578125 145.28125 361.242188 143.9375 360.949219 142.605469 C 354.910156 124.335938 338.464844 114.636719 317.210938 110.058594 C 319.296875 125.242188 329.714844 132.3125 338.410156 137.222656 C 342.253906 139.390625 345.785156 141.15625 348.25 142.960938 C 349.824219 144.113281 350.988281 145.3125 351.65625 146.59375 Z M 359.441406 132.050781 C 359.101562 126.601562 359.5 121.472656 360.5625 116.734375 C 358.363281 105.238281 351.550781 95.816406 339.953125 88.1875 C 339.257812 91.777344 339.347656 95.789062 339.949219 99.921875 C 340.003906 100.082031 340.027344 100.25 340.027344 100.417969 C 340.925781 106.1875 342.8125 112.175781 344.984375 117.589844 C 350.902344 121.4375 355.808594 126.207031 359.441406 132.050781 Z M 336.554688 97.144531 C 336.199219 92.910156 336.421875 88.867188 337.464844 85.308594 C 337.484375 85.234375 337.511719 85.160156 337.542969 85.085938 C 337.605469 84.945312 337.6875 84.816406 337.785156 84.703125 C 337.957031 84.507812 338.167969 84.359375 338.402344 84.269531 C 338.636719 84.179688 338.894531 84.144531 339.152344 84.179688 C 339.300781 84.199219 339.449219 84.238281 339.589844 84.300781 C 339.664062 84.332031 339.734375 84.371094 339.796875 84.414062 C 345.859375 88.152344 350.769531 92.320312 354.570312 96.945312 C 357.996094 96.582031 359.378906 96.519531 361.269531 96.578125 C 360.875 92.472656 360.175781 88.417969 359.097656 84.4375 C 357.632812 84.929688 356.109375 85.230469 354.597656 85.332031 C 351 85.570312 347.480469 84.675781 344.953125 82.671875 C 343.050781 81.164062 341.648438 79.023438 341.203125 76.214844 C 339.269531 78.355469 337.054688 79.601562 334.773438 80.160156 C 337.386719 85.226562 337.328125 91.558594 334.457031 96.097656 C 335.148438 96.390625 335.839844 96.726562 336.554688 97.144531 Z M 375.261719 146.371094 C 375.257812 146.289062 375.257812 146.207031 375.253906 146.125 C 375.253906 146.097656 375.253906 146.070312 375.253906 146.042969 C 375.109375 134.84375 379.605469 123.871094 383.953125 113.675781 C 388.011719 104.144531 391.992188 95.34375 391.273438 87.699219 C 369.871094 94.292969 358.09375 114.875 363.945312 141.785156 C 364.453125 143.335938 364.886719 144.945312 365.25 146.609375 C 368.605469 146.566406 371.941406 146.488281 375.261719 146.371094 Z M 425 106.609375 C 423.019531 106.066406 421.179688 105.0625 419.675781 103.636719 C 418.050781 104.714844 416.757812 105.746094 415.652344 106.964844 C 418.917969 107.101562 422.042969 107.121094 424.808594 106.632812 C 424.871094 106.621094 424.9375 106.613281 425 106.609375 Z M 399.609375 106.90625 C 401.125 103.171875 401.640625 99.347656 401.078125 94.519531 C 399.082031 93.621094 397.261719 92.300781 395.742188 90.699219 C 395.277344 90.210938 394.84375 89.695312 394.441406 89.160156 C 394.496094 95.101562 392.300781 101.660156 389.4375 108.640625 C 389.011719 109.675781 388.574219 110.726562 388.125 111.78125 C 389.398438 110.660156 390.761719 109.726562 392.210938 109.007812 C 394.472656 107.890625 396.976562 107.25 399.609375 106.90625 Z M 411.859375 106.773438 C 413.386719 104.554688 415.195312 102.925781 417.714844 101.21875 C 417.605469 101.042969 417.503906 100.863281 417.402344 100.679688 C 416.78125 99.542969 416.316406 98.257812 416.050781 96.824219 C 412.980469 100.632812 412.089844 103.496094 410.503906 106.703125 C 410.957031 106.726562 411.40625 106.75 411.859375 106.773438 Z M 407.074219 106.578125 C 408.902344 103.273438 409.71875 100.480469 412.046875 97.027344 C 409.652344 99.957031 407.257812 103.304688 405.40625 106.566406 C 405.960938 106.5625 406.515625 106.570312 407.074219 106.578125 Z M 404.292969 95.546875 C 404.507812 98.21875 404.402344 100.617188 404 102.886719 C 405.578125 100.367188 407.394531 97.867188 409.230469 95.582031 C 408.914062 95.640625 408.597656 95.6875 408.285156 95.71875 C 406.929688 95.867188 405.589844 95.796875 404.292969 95.546875 Z M 415.351562 92.828125 C 415.347656 92.855469 415.34375 92.886719 415.339844 92.914062 C 415.421875 92.824219 415.507812 92.734375 415.59375 92.640625 C 415.511719 92.703125 415.433594 92.765625 415.351562 92.828125 Z M 400.601562 67.496094 C 399.203125 66.945312 397.964844 66.296875 396.875 65.574219 C 395.367188 68.832031 392.660156 71.835938 389.375 73.941406 C 385.375 76.503906 380.542969 77.71875 376.066406 76.574219 C 373.640625 75.957031 371.296875 74.652344 369.246094 72.464844 C 369.003906 74.601562 368.320312 76.480469 367.332031 78.097656 C 367.097656 78.476562 366.847656 78.84375 366.582031 79.195312 C 367.8125 85.445312 368.394531 92.894531 368.410156 99.660156 C 374.054688 92.292969 382.09375 86.976562 391.863281 84.296875 C 391.214844 82.339844 390.964844 80.289062 391.214844 78.296875 C 391.746094 74.074219 394.480469 69.964844 400.601562 67.496094 Z M 361.960938 83.167969 C 363.964844 90.355469 364.769531 97.777344 364.777344 105.296875 C 364.917969 105.027344 365.066406 104.761719 365.214844 104.496094 C 365.515625 97.519531 365.121094 89.070312 363.917969 81.875 C 363.300781 82.351562 362.644531 82.785156 361.960938 83.167969 Z M 361.613281 109.046875 C 361.71875 105.910156 361.695312 102.789062 361.511719 99.6875 C 359.96875 99.632812 358.851562 99.652344 356.761719 99.839844 C 358.78125 102.742188 360.394531 105.808594 361.613281 109.046875 Z M 281.328125 90.324219 C 276.09375 81.289062 281.929688 73.21875 289.417969 70.949219 C 294.433594 69.433594 300.15625 70.527344 303.773438 75.601562 C 308.804688 82.664062 305.386719 90.054688 299.558594 93.828125 C 293.71875 97.605469 285.578125 97.664062 281.328125 90.324219 Z M 284.007812 88.769531 C 287.234375 94.339844 293.445312 94.089844 297.875 91.226562 C 302.308594 88.355469 305.074219 82.773438 301.25 77.402344 C 298.5 73.542969 294.128906 72.761719 290.316406 73.917969 C 284.5625 75.660156 279.988281 81.828125 284.007812 88.769531 Z M 340.394531 47.214844 C 340.421875 43.589844 341.484375 40.785156 343.125 38.730469 C 345.78125 35.402344 349.996094 34 354.140625 34.394531 C 360.292969 34.980469 366.230469 39.492188 366.464844 47.175781 C 366.617188 52.222656 362.550781 56.34375 357.453125 58.136719 C 352.945312 59.722656 347.734375 59.445312 344.300781 56.660156 C 341.960938 54.769531 340.363281 51.722656 340.394531 47.214844 Z M 343.496094 47.234375 C 343.472656 50.5625 344.527344 52.859375 346.25 54.253906 C 348.902344 56.402344 352.941406 56.4375 356.425781 55.210938 C 360.214844 53.878906 363.480469 51.019531 363.367188 47.269531 C 363.1875 41.363281 358.578125 37.929688 353.847656 37.480469 C 350.734375 37.183594 347.542969 38.164062 345.546875 40.664062 C 344.28125 42.25 343.515625 44.433594 343.496094 47.234375 Z M 419.734375 60.96875 C 422.644531 53.460938 430.425781 52.585938 436.566406 55.578125 C 442.664062 58.542969 446.953125 65.238281 443.121094 72.480469 C 440.566406 77.3125 436.871094 79.5 433.175781 79.871094 C 424.589844 80.734375 415.65625 71.488281 419.734375 60.96875 Z M 422.625 62.085938 C 419.472656 70.210938 426.230469 77.453125 432.863281 76.785156 C 435.691406 76.503906 438.429688 74.722656 440.382812 71.03125 C 443.273438 65.5625 439.8125 60.601562 435.210938 58.363281 C 430.648438 56.144531 424.785156 56.511719 422.625 62.085938 Z M 422.625 62.085938 " fill-opacity="1" fill-rule="evenodd"/></g></g></g><g fill="#c2a878" fill-opacity="1"><g transform="translate(118.177757, 1286.119429)"><g><path d="M 75.9375 -66.09375 C 75.9375 -70.882812 74.847656 -74.648438 72.671875 -77.390625 C 70.503906 -80.140625 67.46875 -81.515625 63.5625 -81.515625 C 63.382812 -81.515625 63.296875 -81.78125 63.296875 -82.3125 C 63.296875 -82.84375 63.382812 -83.109375 63.5625 -83.109375 L 69.953125 -82.984375 C 73.316406 -82.804688 76.019531 -82.71875 78.0625 -82.71875 C 79.75 -82.71875 82.1875 -82.804688 85.375 -82.984375 L 91.5 -83.109375 C 91.675781 -83.109375 91.765625 -82.84375 91.765625 -82.3125 C 91.765625 -81.78125 91.675781 -81.515625 91.5 -81.515625 C 88.039062 -81.515625 85.332031 -80.140625 83.375 -77.390625 C 81.425781 -74.648438 80.453125 -70.882812 80.453125 -66.09375 L 80.453125 -29.125 C 80.453125 -22.914062 79.078125 -17.460938 76.328125 -12.765625 C 73.578125 -8.066406 69.695312 -4.453125 64.6875 -1.921875 C 59.6875 0.597656 53.90625 1.859375 47.34375 1.859375 C 40.78125 1.859375 34.972656 0.617188 29.921875 -1.859375 C 24.867188 -4.335938 20.898438 -7.945312 18.015625 -12.6875 C 15.140625 -17.4375 13.703125 -23.003906 13.703125 -29.390625 L 13.703125 -72.34375 C 13.703125 -75 13.457031 -76.945312 12.96875 -78.1875 C 12.476562 -79.4375 11.585938 -80.300781 10.296875 -80.78125 C 9.015625 -81.269531 7 -81.515625 4.25 -81.515625 C 3.988281 -81.515625 3.859375 -81.78125 3.859375 -82.3125 C 3.859375 -82.84375 3.988281 -83.109375 4.25 -83.109375 L 11.296875 -82.984375 C 15.378906 -82.804688 18.617188 -82.71875 21.015625 -82.71875 C 23.671875 -82.71875 27.039062 -82.804688 31.125 -82.984375 L 37.90625 -83.109375 C 38.164062 -83.109375 38.296875 -82.84375 38.296875 -82.3125 C 38.296875 -81.78125 38.164062 -81.515625 37.90625 -81.515625 C 35.15625 -81.515625 33.132812 -81.25 31.84375 -80.71875 C 30.5625 -80.1875 29.675781 -79.273438 29.1875 -77.984375 C 28.695312 -76.703125 28.453125 -74.734375 28.453125 -72.078125 L 28.453125 -34.046875 C 28.453125 -23.492188 30.535156 -15.691406 34.703125 -10.640625 C 38.867188 -5.585938 44.765625 -3.0625 52.390625 -3.0625 C 59.753906 -3.0625 65.519531 -5.296875 69.6875 -9.765625 C 73.851562 -14.242188 75.9375 -20.648438 75.9375 -28.984375 Z M 75.9375 -66.09375 "/></g></g></g><g fill="#c2a878" fill-opacity="1"><g transform="translate(211.65753, 1286.119429)"><g><path d="M 96.140625 -83.109375 C 96.316406 -83.109375 96.40625 -82.84375 96.40625 -82.3125 C 96.40625 -81.78125 96.316406 -81.515625 96.140625 -81.515625 C 92.597656 -81.515625 89.804688 -80.117188 87.765625 -77.328125 C 85.734375 -74.535156 84.71875 -70.789062 84.71875 -66.09375 L 84.71875 2 C 84.71875 2.257812 84.515625 2.429688 84.109375 2.515625 C 83.710938 2.609375 83.425781 2.566406 83.25 2.390625 L 20.875 -68.625 L 20.875 -16.890625 C 20.875 -12.191406 21.847656 -8.46875 23.796875 -5.71875 C 25.753906 -2.96875 28.460938 -1.59375 31.921875 -1.59375 C 32.097656 -1.59375 32.1875 -1.328125 32.1875 -0.796875 C 32.1875 -0.265625 32.097656 0 31.921875 0 C 29.429688 0 27.523438 -0.046875 26.203125 -0.140625 L 19.015625 -0.265625 L 10.765625 -0.140625 C 9.265625 -0.046875 7.09375 0 4.25 0 C 3.988281 0 3.859375 -0.265625 3.859375 -0.796875 C 3.859375 -1.328125 3.988281 -1.59375 4.25 -1.59375 C 8.15625 -1.59375 11.238281 -2.96875 13.5 -5.71875 C 15.757812 -8.46875 16.890625 -12.191406 16.890625 -16.890625 L 16.890625 -73.140625 C 13.960938 -76.328125 11.457031 -78.519531 9.375 -79.71875 C 7.289062 -80.914062 5.140625 -81.515625 2.921875 -81.515625 C 2.742188 -81.515625 2.65625 -81.78125 2.65625 -82.3125 C 2.65625 -82.84375 2.742188 -83.109375 2.921875 -83.109375 L 8.515625 -82.984375 C 9.660156 -82.890625 11.34375 -82.84375 13.5625 -82.84375 L 23.671875 -82.984375 C 24.910156 -83.066406 26.414062 -83.109375 28.1875 -83.109375 C 28.894531 -83.109375 29.425781 -82.929688 29.78125 -82.578125 C 30.144531 -82.222656 30.769531 -81.472656 31.65625 -80.328125 C 33.15625 -78.285156 34.21875 -76.910156 34.84375 -76.203125 L 80.859375 -23.140625 L 80.859375 -66.09375 C 80.859375 -70.882812 79.878906 -74.648438 77.921875 -77.390625 C 75.972656 -80.140625 73.269531 -81.515625 69.8125 -81.515625 C 69.632812 -81.515625 69.546875 -81.78125 69.546875 -82.3125 C 69.546875 -82.84375 69.632812 -83.109375 69.8125 -83.109375 L 75.53125 -82.984375 C 78.375 -82.804688 80.769531 -82.71875 82.71875 -82.71875 C 84.488281 -82.71875 86.96875 -82.804688 90.15625 -82.984375 Z M 96.140625 -83.109375 "/></g></g></g><g fill="#c2a878" fill-opacity="1"><g transform="translate(309.392423, 1286.119429)"><g><path d="M 47.875 -46.671875 C 55.320312 -45.785156 61.238281 -43.300781 65.625 -39.21875 C 70.007812 -35.144531 72.203125 -30.09375 72.203125 -24.0625 C 72.203125 -19.457031 70.875 -15.289062 68.21875 -11.5625 C 65.5625 -7.84375 61.882812 -4.894531 57.1875 -2.71875 C 52.488281 -0.550781 47.253906 0.53125 41.484375 0.53125 C 39.003906 0.53125 36.171875 0.398438 32.984375 0.140625 C 31.742188 0.046875 30.210938 -0.0390625 28.390625 -0.125 C 26.578125 -0.21875 24.5625 -0.265625 22.34375 -0.265625 L 12.640625 -0.140625 C 10.859375 -0.046875 8.460938 0 5.453125 0 C 5.179688 0 5.046875 -0.265625 5.046875 -0.796875 C 5.046875 -1.328125 5.179688 -1.59375 5.453125 -1.59375 C 8.023438 -1.59375 9.972656 -1.835938 11.296875 -2.328125 C 12.628906 -2.816406 13.582031 -3.703125 14.15625 -4.984375 C 14.738281 -6.273438 15.03125 -8.203125 15.03125 -10.765625 L 15.03125 -72.34375 C 15.03125 -76.0625 14.40625 -78.519531 13.15625 -79.71875 C 11.914062 -80.914062 9.390625 -81.515625 5.578125 -81.515625 C 5.398438 -81.515625 5.3125 -81.78125 5.3125 -82.3125 C 5.3125 -82.84375 5.398438 -83.109375 5.578125 -83.109375 L 12.640625 -82.984375 C 16.710938 -82.804688 19.945312 -82.71875 22.34375 -82.71875 C 24.820312 -82.71875 27.390625 -82.847656 30.046875 -83.109375 C 30.941406 -83.203125 32.273438 -83.289062 34.046875 -83.375 C 35.816406 -83.46875 37.367188 -83.515625 38.703125 -83.515625 C 46.765625 -83.515625 53.007812 -82.050781 57.4375 -79.125 C 61.875 -76.195312 64.09375 -71.941406 64.09375 -66.359375 C 64.09375 -62.097656 62.695312 -58.238281 59.90625 -54.78125 C 57.113281 -51.332031 53.101562 -48.628906 47.875 -46.671875 Z M 36.703125 -80.59375 C 34.128906 -80.59375 32.351562 -79.992188 31.375 -78.796875 C 30.40625 -77.597656 29.921875 -75.359375 29.921875 -72.078125 L 29.921875 -46.8125 L 35.234375 -46.671875 C 39.847656 -46.671875 43.394531 -48.398438 45.875 -51.859375 C 48.363281 -55.316406 49.609375 -59.75 49.609375 -65.15625 C 49.609375 -70.21875 48.5 -74.054688 46.28125 -76.671875 C 44.0625 -79.285156 40.867188 -80.59375 36.703125 -80.59375 Z M 39.234375 -2.796875 C 50.847656 -2.796875 56.65625 -8.820312 56.65625 -20.875 C 56.65625 -27.707031 55.015625 -33.117188 51.734375 -37.109375 C 48.453125 -41.097656 43.488281 -43.09375 36.84375 -43.09375 C 34.269531 -43.09375 31.960938 -43.003906 29.921875 -42.828125 L 29.921875 -10.765625 C 29.921875 -7.847656 30.492188 -5.789062 31.640625 -4.59375 C 32.796875 -3.394531 35.328125 -2.796875 39.234375 -2.796875 Z M 39.234375 -2.796875 "/></g></g></g><g fill="#c2a878" fill-opacity="1"><g transform="translate(388.511145, 1286.119429)"><g><path d="M 75.9375 -66.09375 C 75.9375 -70.882812 74.847656 -74.648438 72.671875 -77.390625 C 70.503906 -80.140625 67.46875 -81.515625 63.5625 -81.515625 C 63.382812 -81.515625 63.296875 -81.78125 63.296875 -82.3125 C 63.296875 -82.84375 63.382812 -83.109375 63.5625 -83.109375 L 69.953125 -82.984375 C 73.316406 -82.804688 76.019531 -82.71875 78.0625 -82.71875 C 79.75 -82.71875 82.1875 -82.804688 85.375 -82.984375 L 91.5 -83.109375 C 91.675781 -83.109375 91.765625 -82.84375 91.765625 -82.3125 C 91.765625 -81.78125 91.675781 -81.515625 91.5 -81.515625 C 88.039062 -81.515625 85.332031 -80.140625 83.375 -77.390625 C 81.425781 -74.648438 80.453125 -70.882812 80.453125 -66.09375 L 80.453125 -29.125 C 80.453125 -22.914062 79.078125 -17.460938 76.328125 -12.765625 C 73.578125 -8.066406 69.695312 -4.453125 64.6875 -1.921875 C 59.6875 0.597656 53.90625 1.859375 47.34375 1.859375 C 40.78125 1.859375 34.972656 0.617188 29.921875 -1.859375 C 24.867188 -4.335938 20.898438 -7.945312 18.015625 -12.6875 C 15.140625 -17.4375 13.703125 -23.003906 13.703125 -29.390625 L 13.703125 -72.34375 C 13.703125 -75 13.457031 -76.945312 12.96875 -78.1875 C 12.476562 -79.4375 11.585938 -80.300781 10.296875 -80.78125 C 9.015625 -81.269531 7 -81.515625 4.25 -81.515625 C 3.988281 -81.515625 3.859375 -81.78125 3.859375 -82.3125 C 3.859375 -82.84375 3.988281 -83.109375 4.25 -83.109375 L 11.296875 -82.984375 C 15.378906 -82.804688 18.617188 -82.71875 21.015625 -82.71875 C 23.671875 -82.71875 27.039062 -82.804688 31.125 -82.984375 L 37.90625 -83.109375 C 38.164062 -83.109375 38.296875 -82.84375 38.296875 -82.3125 C 38.296875 -81.78125 38.164062 -81.515625 37.90625 -81.515625 C 35.15625 -81.515625 33.132812 -81.25 31.84375 -80.71875 C 30.5625 -80.1875 29.675781 -79.273438 29.1875 -77.984375 C 28.695312 -76.703125 28.453125 -74.734375 28.453125 -72.078125 L 28.453125 -34.046875 C 28.453125 -23.492188 30.535156 -15.691406 34.703125 -10.640625 C 38.867188 -5.585938 44.765625 -3.0625 52.390625 -3.0625 C 59.753906 -3.0625 65.519531 -5.296875 69.6875 -9.765625 C 73.851562 -14.242188 75.9375 -20.648438 75.9375 -28.984375 Z M 75.9375 -66.09375 "/></g></g></g><g fill="#c2a878" fill-opacity="1"><g transform="translate(481.990919, 1286.119429)"><g><path d="M 30.1875 -10.765625 C 30.1875 -8.023438 30.40625 -6.03125 30.84375 -4.78125 C 31.289062 -3.539062 32.15625 -2.695312 33.4375 -2.25 C 34.726562 -1.8125 36.789062 -1.59375 39.625 -1.59375 C 39.894531 -1.59375 40.03125 -1.328125 40.03125 -0.796875 C 40.03125 -0.265625 39.894531 0 39.625 0 C 36.695312 0 34.394531 -0.046875 32.71875 -0.140625 L 22.609375 -0.265625 L 12.765625 -0.140625 C 10.992188 -0.046875 8.597656 0 5.578125 0 C 5.398438 0 5.3125 -0.265625 5.3125 -0.796875 C 5.3125 -1.328125 5.398438 -1.59375 5.578125 -1.59375 C 8.421875 -1.59375 10.503906 -1.8125 11.828125 -2.25 C 13.160156 -2.695312 14.070312 -3.5625 14.5625 -4.84375 C 15.050781 -6.132812 15.296875 -8.109375 15.296875 -10.765625 L 15.296875 -72.34375 C 15.296875 -75 15.050781 -76.945312 14.5625 -78.1875 C 14.070312 -79.4375 13.160156 -80.300781 11.828125 -80.78125 C 10.503906 -81.269531 8.421875 -81.515625 5.578125 -81.515625 C 5.398438 -81.515625 5.3125 -81.78125 5.3125 -82.3125 C 5.3125 -82.84375 5.398438 -83.109375 5.578125 -83.109375 L 12.765625 -82.984375 C 16.847656 -82.804688 20.128906 -82.71875 22.609375 -82.71875 C 25.359375 -82.71875 28.769531 -82.804688 32.84375 -82.984375 L 39.625 -83.109375 C 39.894531 -83.109375 40.03125 -82.84375 40.03125 -82.3125 C 40.03125 -81.78125 39.894531 -81.515625 39.625 -81.515625 C 36.875 -81.515625 34.832031 -81.25 33.5 -80.71875 C 32.175781 -80.1875 31.289062 -79.273438 30.84375 -77.984375 C 30.40625 -76.703125 30.1875 -74.734375 30.1875 -72.078125 Z M 30.1875 -10.765625 "/></g></g></g><g fill="#c2a878" fill-opacity="1"><g transform="translate(527.467562, 1286.119429)"><g><path d="M 28.328125 -11.296875 C 28.328125 -8.992188 28.503906 -7.332031 28.859375 -6.3125 C 29.210938 -5.289062 29.898438 -4.601562 30.921875 -4.25 C 31.941406 -3.894531 33.601562 -3.71875 35.90625 -3.71875 L 40.421875 -3.71875 C 47.335938 -3.71875 53.320312 -5.554688 58.375 -9.234375 C 63.425781 -12.921875 66.796875 -17.910156 68.484375 -24.203125 C 68.484375 -24.378906 68.660156 -24.46875 69.015625 -24.46875 C 69.191406 -24.46875 69.390625 -24.398438 69.609375 -24.265625 C 69.835938 -24.128906 69.953125 -24.019531 69.953125 -23.9375 C 69.148438 -15.15625 68.75 -7.84375 68.75 -2 C 68.75 -1.289062 68.59375 -0.78125 68.28125 -0.46875 C 67.976562 -0.15625 67.472656 0 66.765625 0 L 3.984375 0 C 3.804688 0 3.71875 -0.265625 3.71875 -0.796875 C 3.71875 -1.328125 3.804688 -1.59375 3.984375 -1.59375 C 6.828125 -1.59375 8.890625 -1.8125 10.171875 -2.25 C 11.460938 -2.695312 12.347656 -3.5625 12.828125 -4.84375 C 13.316406 -6.132812 13.5625 -8.109375 13.5625 -10.765625 L 13.5625 -72.34375 C 13.5625 -75 13.316406 -76.945312 12.828125 -78.1875 C 12.347656 -79.4375 11.441406 -80.300781 10.109375 -80.78125 C 8.773438 -81.269531 6.734375 -81.515625 3.984375 -81.515625 C 3.804688 -81.515625 3.71875 -81.78125 3.71875 -82.3125 C 3.71875 -82.84375 3.804688 -83.109375 3.984375 -83.109375 L 10.765625 -82.984375 C 14.847656 -82.804688 18.21875 -82.71875 20.875 -82.71875 C 23.539062 -82.71875 26.910156 -82.804688 30.984375 -82.984375 L 37.765625 -83.109375 C 38.035156 -83.109375 38.171875 -82.84375 38.171875 -82.3125 C 38.171875 -81.78125 38.035156 -81.515625 37.765625 -81.515625 C 35.015625 -81.515625 32.972656 -81.269531 31.640625 -80.78125 C 30.316406 -80.300781 29.429688 -79.414062 28.984375 -78.125 C 28.546875 -76.84375 28.328125 -74.867188 28.328125 -72.203125 Z M 28.328125 -11.296875 "/></g></g></g><g fill="#c2a878" fill-opacity="1"><g transform="translate(599.937633, 1286.119429)"><g><path d="M 43.359375 0.53125 C 40.515625 0.53125 37.144531 0.398438 33.25 0.140625 C 31.832031 0.046875 30.082031 -0.0390625 28 -0.125 C 25.914062 -0.21875 23.585938 -0.265625 21.015625 -0.265625 L 11.171875 -0.140625 C 9.398438 -0.046875 7.003906 0 3.984375 0 C 3.804688 0 3.71875 -0.265625 3.71875 -0.796875 C 3.71875 -1.328125 3.804688 -1.59375 3.984375 -1.59375 C 6.828125 -1.59375 8.910156 -1.8125 10.234375 -2.25 C 11.566406 -2.695312 12.476562 -3.5625 12.96875 -4.84375 C 13.457031 -6.132812 13.703125 -8.109375 13.703125 -10.765625 L 13.703125 -72.34375 C 13.703125 -75 13.457031 -76.945312 12.96875 -78.1875 C 12.476562 -79.4375 11.585938 -80.300781 10.296875 -80.78125 C 9.015625 -81.269531 7 -81.515625 4.25 -81.515625 C 3.988281 -81.515625 3.859375 -81.78125 3.859375 -82.3125 C 3.859375 -82.84375 3.988281 -83.109375 4.25 -83.109375 L 11.296875 -82.984375 C 15.378906 -82.804688 18.617188 -82.71875 21.015625 -82.71875 C 24.648438 -82.71875 28.375 -82.847656 32.1875 -83.109375 C 36.789062 -83.285156 39.890625 -83.375 41.484375 -83.375 C 50.441406 -83.375 58.398438 -81.601562 65.359375 -78.0625 C 72.316406 -74.519531 77.703125 -69.6875 81.515625 -63.5625 C 85.328125 -57.445312 87.234375 -50.578125 87.234375 -42.953125 C 87.234375 -34.347656 85.257812 -26.742188 81.3125 -20.140625 C 77.375 -13.535156 72.054688 -8.4375 65.359375 -4.84375 C 58.671875 -1.257812 51.335938 0.53125 43.359375 0.53125 Z M 42.015625 -2.53125 C 47.691406 -2.53125 52.703125 -3.96875 57.046875 -6.84375 C 61.390625 -9.726562 64.78125 -14.003906 67.21875 -19.671875 C 69.65625 -25.347656 70.875 -32.132812 70.875 -40.03125 C 70.875 -47.5625 69.722656 -54.40625 67.421875 -60.5625 C 65.117188 -66.726562 61.835938 -71.582031 57.578125 -75.125 C 53.328125 -78.675781 48.410156 -80.453125 42.828125 -80.453125 C 37.328125 -80.453125 33.554688 -79.921875 31.515625 -78.859375 C 29.472656 -77.796875 28.453125 -75.535156 28.453125 -72.078125 L 28.453125 -12.234375 C 28.453125 -8.691406 29.382812 -6.1875 31.25 -4.71875 C 33.113281 -3.257812 36.703125 -2.53125 42.015625 -2.53125 Z M 42.015625 -2.53125 "/></g></g></g><g fill="#c2a878" fill-opacity="1"><g transform="translate(693.683368, 1286.119429)"><g><path d="M 30.1875 -10.765625 C 30.1875 -8.023438 30.40625 -6.03125 30.84375 -4.78125 C 31.289062 -3.539062 32.15625 -2.695312 33.4375 -2.25 C 34.726562 -1.8125 36.789062 -1.59375 39.625 -1.59375 C 39.894531 -1.59375 40.03125 -1.328125 40.03125 -0.796875 C 40.03125 -0.265625 39.894531 0 39.625 0 C 36.695312 0 34.394531 -0.046875 32.71875 -0.140625 L 22.609375 -0.265625 L 12.765625 -0.140625 C 10.992188 -0.046875 8.597656 0 5.578125 0 C 5.398438 0 5.3125 -0.265625 5.3125 -0.796875 C 5.3125 -1.328125 5.398438 -1.59375 5.578125 -1.59375 C 8.421875 -1.59375 10.503906 -1.8125 11.828125 -2.25 C 13.160156 -2.695312 14.070312 -3.5625 14.5625 -4.84375 C 15.050781 -6.132812 15.296875 -8.109375 15.296875 -10.765625 L 15.296875 -72.34375 C 15.296875 -75 15.050781 -76.945312 14.5625 -78.1875 C 14.070312 -79.4375 13.160156 -80.300781 11.828125 -80.78125 C 10.503906 -81.269531 8.421875 -81.515625 5.578125 -81.515625 C 5.398438 -81.515625 5.3125 -81.78125 5.3125 -82.3125 C 5.3125 -82.84375 5.398438 -83.109375 5.578125 -83.109375 L 12.765625 -82.984375 C 16.847656 -82.804688 20.128906 -82.71875 22.609375 -82.71875 C 25.359375 -82.71875 28.769531 -82.804688 32.84375 -82.984375 L 39.625 -83.109375 C 39.894531 -83.109375 40.03125 -82.84375 40.03125 -82.3125 C 40.03125 -81.78125 39.894531 -81.515625 39.625 -81.515625 C 36.875 -81.515625 34.832031 -81.25 33.5 -80.71875 C 32.175781 -80.1875 31.289062 -79.273438 30.84375 -77.984375 C 30.40625 -76.703125 30.1875 -74.734375 30.1875 -72.078125 Z M 30.1875 -10.765625 "/></g></g></g><g fill="#c2a878" fill-opacity="1"><g transform="translate(739.160033, 1286.119429)"><g><path d="M 96.140625 -83.109375 C 96.316406 -83.109375 96.40625 -82.84375 96.40625 -82.3125 C 96.40625 -81.78125 96.316406 -81.515625 96.140625 -81.515625 C 92.597656 -81.515625 89.804688 -80.117188 87.765625 -77.328125 C 85.734375 -74.535156 84.71875 -70.789062 84.71875 -66.09375 L 84.71875 2 C 84.71875 2.257812 84.515625 2.429688 84.109375 2.515625 C 83.710938 2.609375 83.425781 2.566406 83.25 2.390625 L 20.875 -68.625 L 20.875 -16.890625 C 20.875 -12.191406 21.847656 -8.46875 23.796875 -5.71875 C 25.753906 -2.96875 28.460938 -1.59375 31.921875 -1.59375 C 32.097656 -1.59375 32.1875 -1.328125 32.1875 -0.796875 C 32.1875 -0.265625 32.097656 0 31.921875 0 C 29.429688 0 27.523438 -0.046875 26.203125 -0.140625 L 19.015625 -0.265625 L 10.765625 -0.140625 C 9.265625 -0.046875 7.09375 0 4.25 0 C 3.988281 0 3.859375 -0.265625 3.859375 -0.796875 C 3.859375 -1.328125 3.988281 -1.59375 4.25 -1.59375 C 8.15625 -1.59375 11.238281 -2.96875 13.5 -5.71875 C 15.757812 -8.46875 16.890625 -12.191406 16.890625 -16.890625 L 16.890625 -73.140625 C 13.960938 -76.328125 11.457031 -78.519531 9.375 -79.71875 C 7.289062 -80.914062 5.140625 -81.515625 2.921875 -81.515625 C 2.742188 -81.515625 2.65625 -81.78125 2.65625 -82.3125 C 2.65625 -82.84375 2.742188 -83.109375 2.921875 -83.109375 L 8.515625 -82.984375 C 9.660156 -82.890625 11.34375 -82.84375 13.5625 -82.84375 L 23.671875 -82.984375 C 24.910156 -83.066406 26.414062 -83.109375 28.1875 -83.109375 C 28.894531 -83.109375 29.425781 -82.929688 29.78125 -82.578125 C 30.144531 -82.222656 30.769531 -81.472656 31.65625 -80.328125 C 33.15625 -78.285156 34.21875 -76.910156 34.84375 -76.203125 L 80.859375 -23.140625 L 80.859375 -66.09375 C 80.859375 -70.882812 79.878906 -74.648438 77.921875 -77.390625 C 75.972656 -80.140625 73.269531 -81.515625 69.8125 -81.515625 C 69.632812 -81.515625 69.546875 -81.78125 69.546875 -82.3125 C 69.546875 -82.84375 69.632812 -83.109375 69.8125 -83.109375 L 75.53125 -82.984375 C 78.375 -82.804688 80.769531 -82.71875 82.71875 -82.71875 C 84.488281 -82.71875 86.96875 -82.804688 90.15625 -82.984375 Z M 96.140625 -83.109375 "/></g></g></g><g fill="#c2a878" fill-opacity="1"><g transform="translate(836.894903, 1286.119429)"><g><path d="M 55.984375 1.59375 C 45.878906 1.59375 37.101562 -0.285156 29.65625 -4.046875 C 22.207031 -7.816406 16.488281 -12.9375 12.5 -19.40625 C 8.507812 -25.882812 6.515625 -33.066406 6.515625 -40.953125 C 6.515625 -49.378906 8.753906 -56.914062 13.234375 -63.5625 C 17.710938 -70.21875 23.894531 -75.382812 31.78125 -79.0625 C 39.675781 -82.738281 48.539062 -84.578125 58.375 -84.578125 C 62.632812 -84.578125 66.890625 -84.242188 71.140625 -83.578125 C 75.398438 -82.910156 78.816406 -82.046875 81.390625 -80.984375 C 82.359375 -80.628906 82.910156 -80.34375 83.046875 -80.125 C 83.179688 -79.90625 83.289062 -79.171875 83.375 -77.921875 L 85.109375 -59.4375 C 85.109375 -59.175781 84.863281 -59 84.375 -58.90625 C 83.882812 -58.820312 83.597656 -58.957031 83.515625 -59.3125 C 82.359375 -62.238281 80.492188 -65.429688 77.921875 -68.890625 C 75.359375 -72.347656 71.992188 -75.359375 67.828125 -77.921875 C 63.660156 -80.492188 58.828125 -81.78125 53.328125 -81.78125 C 47.648438 -81.78125 42.460938 -80.226562 37.765625 -77.125 C 33.066406 -74.019531 29.363281 -69.585938 26.65625 -63.828125 C 23.957031 -58.066406 22.609375 -51.375 22.609375 -43.75 C 22.609375 -35.414062 24.179688 -27.96875 27.328125 -21.40625 C 30.472656 -14.84375 34.835938 -9.742188 40.421875 -6.109375 C 46.015625 -2.484375 52.3125 -0.671875 59.3125 -0.671875 C 62.945312 -0.671875 65.738281 -1.066406 67.6875 -1.859375 C 69.632812 -2.660156 71.050781 -4.210938 71.9375 -6.515625 C 72.832031 -8.816406 73.28125 -12.226562 73.28125 -16.75 C 73.28125 -21.363281 73.007812 -24.578125 72.46875 -26.390625 C 71.9375 -28.210938 70.804688 -29.429688 69.078125 -30.046875 C 67.359375 -30.671875 64.320312 -30.984375 59.96875 -30.984375 C 59.4375 -30.984375 59.171875 -31.335938 59.171875 -32.046875 C 59.171875 -32.316406 59.238281 -32.5625 59.375 -32.78125 C 59.507812 -33 59.664062 -33.109375 59.84375 -33.109375 C 67.375 -32.671875 73.488281 -32.453125 78.1875 -32.453125 C 82.71875 -32.453125 87.421875 -32.582031 92.296875 -32.84375 C 92.648438 -32.84375 92.847656 -32.53125 92.890625 -31.90625 C 92.929688 -31.289062 92.734375 -30.984375 92.296875 -30.984375 C 90.691406 -31.078125 89.554688 -30.789062 88.890625 -30.125 C 88.234375 -29.457031 87.816406 -28.101562 87.640625 -26.0625 C 87.460938 -24.019531 87.375 -20.472656 87.375 -15.421875 C 87.375 -11.429688 87.523438 -8.59375 87.828125 -6.90625 C 88.140625 -5.226562 88.296875 -4.164062 88.296875 -3.71875 C 88.296875 -3.1875 88.207031 -2.832031 88.03125 -2.65625 C 87.851562 -2.476562 87.457031 -2.300781 86.84375 -2.125 C 75.40625 0.351562 65.117188 1.59375 55.984375 1.59375 Z M 55.984375 1.59375 "/></g></g></g><g fill="#c2a878" fill-opacity="1"><g transform="translate(934.097943, 1286.119429)"><g/></g></g><g fill="#c2a878" fill-opacity="1"><g transform="translate(965.213511, 1286.119429)"><g><path d="M 121.953125 -83.109375 C 122.128906 -83.109375 122.21875 -82.84375 122.21875 -82.3125 C 122.21875 -81.78125 122.128906 -81.515625 121.953125 -81.515625 C 118.671875 -81.515625 115.585938 -80.117188 112.703125 -77.328125 C 109.816406 -74.535156 107.445312 -70.703125 105.59375 -65.828125 L 80.984375 -0.140625 C 80.898438 0.222656 80.414062 0.40625 79.53125 0.40625 C 78.632812 0.40625 78.144531 0.222656 78.0625 -0.140625 L 61.046875 -36.171875 L 47.609375 -0.140625 C 47.515625 0.222656 47.023438 0.40625 46.140625 0.40625 C 45.253906 0.40625 44.769531 0.222656 44.6875 -0.140625 L 10.765625 -72.078125 C 9.441406 -74.910156 8.359375 -76.945312 7.515625 -78.1875 C 6.671875 -79.4375 5.738281 -80.300781 4.71875 -80.78125 C 3.695312 -81.269531 2.347656 -81.515625 0.671875 -81.515625 C 0.398438 -81.515625 0.265625 -81.78125 0.265625 -82.3125 C 0.265625 -82.84375 0.398438 -83.109375 0.671875 -83.109375 C 1.992188 -83.109375 2.921875 -83.066406 3.453125 -82.984375 C 5.234375 -82.804688 7.539062 -82.71875 10.375 -82.71875 C 16.3125 -82.71875 21.320312 -82.804688 25.40625 -82.984375 C 26.550781 -83.066406 27.96875 -83.109375 29.65625 -83.109375 C 29.914062 -83.109375 30.046875 -82.84375 30.046875 -82.3125 C 30.046875 -81.78125 29.914062 -81.515625 29.65625 -81.515625 C 27.4375 -81.515625 25.859375 -81.289062 24.921875 -80.84375 C 23.992188 -80.40625 23.53125 -79.609375 23.53125 -78.453125 C 23.53125 -76.953125 24.550781 -74.03125 26.59375 -69.6875 L 50.53125 -18.890625 L 58.90625 -40.828125 L 44.15625 -72.078125 C 42.644531 -75.265625 41.222656 -77.632812 39.890625 -79.1875 C 38.566406 -80.738281 37.148438 -81.515625 35.640625 -81.515625 C 35.367188 -81.515625 35.234375 -81.78125 35.234375 -82.3125 C 35.234375 -82.84375 35.367188 -83.109375 35.640625 -83.109375 C 36.523438 -83.109375 37.566406 -83.039062 38.765625 -82.90625 C 39.960938 -82.78125 41.671875 -82.71875 43.890625 -82.71875 C 48.941406 -82.71875 53.148438 -82.804688 56.515625 -82.984375 C 57.398438 -83.066406 58.550781 -83.109375 59.96875 -83.109375 C 60.238281 -83.109375 60.375 -82.84375 60.375 -82.3125 C 60.375 -81.78125 60.238281 -81.515625 59.96875 -81.515625 C 58.726562 -81.515625 57.820312 -81.359375 57.25 -81.046875 C 56.675781 -80.742188 56.390625 -80.191406 56.390625 -79.390625 C 56.390625 -77.878906 57.582031 -74.644531 59.96875 -69.6875 L 65.828125 -57.3125 L 69.15625 -66.21875 C 71.101562 -71.28125 72.078125 -75.09375 72.078125 -77.65625 C 72.078125 -80.226562 70.96875 -81.515625 68.75 -81.515625 C 68.488281 -81.515625 68.359375 -81.78125 68.359375 -82.3125 C 68.359375 -82.84375 68.488281 -83.109375 68.75 -83.109375 C 69.457031 -83.109375 70.234375 -83.039062 71.078125 -82.90625 C 71.921875 -82.78125 74.023438 -82.71875 77.390625 -82.71875 C 78.898438 -82.71875 80.71875 -82.804688 82.84375 -82.984375 L 87.765625 -83.109375 C 87.941406 -83.109375 88.03125 -82.84375 88.03125 -82.3125 C 88.03125 -81.78125 87.941406 -81.515625 87.765625 -81.515625 C 81.828125 -81.515625 76.910156 -76.285156 73.015625 -65.828125 L 68.09375 -52.65625 L 84.046875 -19.015625 L 101.203125 -64.890625 C 102.265625 -67.734375 102.796875 -70.304688 102.796875 -72.609375 C 102.796875 -75.359375 102.109375 -77.53125 100.734375 -79.125 C 99.359375 -80.71875 97.519531 -81.515625 95.21875 -81.515625 C 94.945312 -81.515625 94.8125 -81.78125 94.8125 -82.3125 C 94.8125 -82.84375 94.945312 -83.109375 95.21875 -83.109375 L 101.328125 -82.984375 C 104.523438 -82.804688 107.453125 -82.71875 110.109375 -82.71875 C 111.878906 -82.71875 113.921875 -82.804688 116.234375 -82.984375 Z M 121.953125 -83.109375 "/></g></g></g><g fill="#c2a878" fill-opacity="1"><g transform="translate(1073.18631, 1286.119429)"><g><path d="M 95.34375 -1.59375 C 95.789062 -1.59375 96.015625 -1.328125 96.015625 -0.796875 C 96.015625 -0.265625 95.789062 0 95.34375 0 C 93.570312 0 90.828125 -0.0859375 87.109375 -0.265625 C 83.203125 -0.441406 80.410156 -0.53125 78.734375 -0.53125 C 76.515625 -0.53125 73.804688 -0.441406 70.609375 -0.265625 C 67.597656 -0.0859375 65.207031 0 63.4375 0 C 63.082031 0 62.90625 -0.265625 62.90625 -0.796875 C 62.90625 -1.328125 63.082031 -1.59375 63.4375 -1.59375 C 65.738281 -1.59375 67.398438 -1.835938 68.421875 -2.328125 C 69.441406 -2.816406 69.953125 -3.679688 69.953125 -4.921875 C 69.953125 -6.429688 69.066406 -8.957031 67.296875 -12.5 L 58.25 -30.453125 L 25.53125 -30.453125 L 20.34375 -18.890625 C 19.195312 -16.316406 18.625 -13.921875 18.625 -11.703125 C 18.625 -8.515625 19.753906 -6.03125 22.015625 -4.25 C 24.273438 -2.476562 27.3125 -1.59375 31.125 -1.59375 C 31.5625 -1.59375 31.78125 -1.328125 31.78125 -0.796875 C 31.78125 -0.265625 31.5625 0 31.125 0 C 29.519531 0 27.210938 -0.0859375 24.203125 -0.265625 C 20.835938 -0.441406 17.910156 -0.53125 15.421875 -0.53125 C 13.023438 -0.53125 10.144531 -0.441406 6.78125 -0.265625 C 3.769531 -0.0859375 1.332031 0 -0.53125 0 C -0.882812 0 -1.0625 -0.265625 -1.0625 -0.796875 C -1.0625 -1.328125 -0.882812 -1.59375 -0.53125 -1.59375 C 1.945312 -1.59375 4.03125 -2.101562 5.71875 -3.125 C 7.40625 -4.144531 9.085938 -5.960938 10.765625 -8.578125 C 12.453125 -11.191406 14.445312 -15.070312 16.75 -20.21875 L 45.609375 -83.640625 C 45.785156 -83.910156 46.1875 -84.046875 46.8125 -84.046875 C 47.519531 -84.046875 47.914062 -83.910156 48 -83.640625 L 81.25 -18.21875 C 84.351562 -11.925781 86.925781 -7.582031 88.96875 -5.1875 C 91.007812 -2.789062 93.132812 -1.59375 95.34375 -1.59375 Z M 27.265625 -34.171875 L 56.25 -34.171875 L 40.953125 -64.5 Z M 27.265625 -34.171875 "/></g></g></g><g fill="#c2a878" fill-opacity="1"><g transform="translate(1168.394737, 1286.119429)"><g><path d="M 28.328125 -11.296875 C 28.328125 -8.992188 28.503906 -7.332031 28.859375 -6.3125 C 29.210938 -5.289062 29.898438 -4.601562 30.921875 -4.25 C 31.941406 -3.894531 33.601562 -3.71875 35.90625 -3.71875 L 40.421875 -3.71875 C 47.335938 -3.71875 53.320312 -5.554688 58.375 -9.234375 C 63.425781 -12.921875 66.796875 -17.910156 68.484375 -24.203125 C 68.484375 -24.378906 68.660156 -24.46875 69.015625 -24.46875 C 69.191406 -24.46875 69.390625 -24.398438 69.609375 -24.265625 C 69.835938 -24.128906 69.953125 -24.019531 69.953125 -23.9375 C 69.148438 -15.15625 68.75 -7.84375 68.75 -2 C 68.75 -1.289062 68.59375 -0.78125 68.28125 -0.46875 C 67.976562 -0.15625 67.472656 0 66.765625 0 L 3.984375 0 C 3.804688 0 3.71875 -0.265625 3.71875 -0.796875 C 3.71875 -1.328125 3.804688 -1.59375 3.984375 -1.59375 C 6.828125 -1.59375 8.890625 -1.8125 10.171875 -2.25 C 11.460938 -2.695312 12.347656 -3.5625 12.828125 -4.84375 C 13.316406 -6.132812 13.5625 -8.109375 13.5625 -10.765625 L 13.5625 -72.34375 C 13.5625 -75 13.316406 -76.945312 12.828125 -78.1875 C 12.347656 -79.4375 11.441406 -80.300781 10.109375 -80.78125 C 8.773438 -81.269531 6.734375 -81.515625 3.984375 -81.515625 C 3.804688 -81.515625 3.71875 -81.78125 3.71875 -82.3125 C 3.71875 -82.84375 3.804688 -83.109375 3.984375 -83.109375 L 10.765625 -82.984375 C 14.847656 -82.804688 18.21875 -82.71875 20.875 -82.71875 C 23.539062 -82.71875 26.910156 -82.804688 30.984375 -82.984375 L 37.765625 -83.109375 C 38.035156 -83.109375 38.171875 -82.84375 38.171875 -82.3125 C 38.171875 -81.78125 38.035156 -81.515625 37.765625 -81.515625 C 35.015625 -81.515625 32.972656 -81.269531 31.640625 -80.78125 C 30.316406 -80.300781 29.429688 -79.414062 28.984375 -78.125 C 28.546875 -76.84375 28.328125 -74.867188 28.328125 -72.203125 Z M 28.328125 -11.296875 "/></g></g></g><g fill="#c2a878" fill-opacity="1"><g transform="translate(1240.864854, 1286.119429)"><g><path d="M 28.328125 -11.296875 C 28.328125 -8.992188 28.503906 -7.332031 28.859375 -6.3125 C 29.210938 -5.289062 29.898438 -4.601562 30.921875 -4.25 C 31.941406 -3.894531 33.601562 -3.71875 35.90625 -3.71875 L 40.421875 -3.71875 C 47.335938 -3.71875 53.320312 -5.554688 58.375 -9.234375 C 63.425781 -12.921875 66.796875 -17.910156 68.484375 -24.203125 C 68.484375 -24.378906 68.660156 -24.46875 69.015625 -24.46875 C 69.191406 -24.46875 69.390625 -24.398438 69.609375 -24.265625 C 69.835938 -24.128906 69.953125 -24.019531 69.953125 -23.9375 C 69.148438 -15.15625 68.75 -7.84375 68.75 -2 C 68.75 -1.289062 68.59375 -0.78125 68.28125 -0.46875 C 67.976562 -0.15625 67.472656 0 66.765625 0 L 3.984375 0 C 3.804688 0 3.71875 -0.265625 3.71875 -0.796875 C 3.71875 -1.328125 3.804688 -1.59375 3.984375 -1.59375 C 6.828125 -1.59375 8.890625 -1.8125 10.171875 -2.25 C 11.460938 -2.695312 12.347656 -3.5625 12.828125 -4.84375 C 13.316406 -6.132812 13.5625 -8.109375 13.5625 -10.765625 L 13.5625 -72.34375 C 13.5625 -75 13.316406 -76.945312 12.828125 -78.1875 C 12.347656 -79.4375 11.441406 -80.300781 10.109375 -80.78125 C 8.773438 -81.269531 6.734375 -81.515625 3.984375 -81.515625 C 3.804688 -81.515625 3.71875 -81.78125 3.71875 -82.3125 C 3.71875 -82.84375 3.804688 -83.109375 3.984375 -83.109375 L 10.765625 -82.984375 C 14.847656 -82.804688 18.21875 -82.71875 20.875 -82.71875 C 23.539062 -82.71875 26.910156 -82.804688 30.984375 -82.984375 L 37.765625 -83.109375 C 38.035156 -83.109375 38.171875 -82.84375 38.171875 -82.3125 C 38.171875 -81.78125 38.035156 -81.515625 37.765625 -81.515625 C 35.015625 -81.515625 32.972656 -81.269531 31.640625 -80.78125 C 30.316406 -80.300781 29.429688 -79.414062 28.984375 -78.125 C 28.546875 -76.84375 28.328125 -74.867188 28.328125 -72.203125 Z M 28.328125 -11.296875 "/></g></g></g><g fill="#c2a878" fill-opacity="1"><g transform="translate(1313.33488, 1286.119429)"><g><path d="M 23.140625 -69.6875 C 23.140625 -66.488281 23.957031 -63.648438 25.59375 -61.171875 C 27.238281 -58.691406 29.253906 -56.519531 31.640625 -54.65625 C 34.035156 -52.789062 37.273438 -50.53125 41.359375 -47.875 C 45.785156 -45.039062 49.328125 -42.554688 51.984375 -40.421875 C 54.648438 -38.296875 56.914062 -35.703125 58.78125 -32.640625 C 60.644531 -29.585938 61.578125 -26.066406 61.578125 -22.078125 C 61.578125 -17.460938 60.332031 -13.359375 57.84375 -9.765625 C 55.363281 -6.179688 51.925781 -3.390625 47.53125 -1.390625 C 43.144531 0.597656 38.25 1.59375 32.84375 1.59375 C 28.851562 1.59375 24.6875 1.039062 20.34375 -0.0625 C 16 -1.175781 13.070312 -2.394531 11.5625 -3.71875 C 11.125 -4.070312 10.789062 -4.40625 10.5625 -4.71875 C 10.34375 -5.03125 10.234375 -5.539062 10.234375 -6.25 L 9.84375 -27.390625 L 9.84375 -27.53125 C 9.84375 -27.882812 10.0625 -28.082031 10.5 -28.125 C 10.945312 -28.164062 11.210938 -28.007812 11.296875 -27.65625 C 13.960938 -22.25 16.289062 -17.859375 18.28125 -14.484375 C 20.28125 -11.117188 22.804688 -8.148438 25.859375 -5.578125 C 28.921875 -3.015625 32.40625 -1.734375 36.3125 -1.734375 C 39.851562 -1.734375 42.773438 -2.6875 45.078125 -4.59375 C 47.390625 -6.5 48.546875 -9.753906 48.546875 -14.359375 C 48.546875 -18.265625 47.679688 -21.675781 45.953125 -24.59375 C 44.222656 -27.519531 42.113281 -30.003906 39.625 -32.046875 C 37.144531 -34.085938 33.734375 -36.523438 29.390625 -39.359375 C 25.128906 -42.109375 21.820312 -44.457031 19.46875 -46.40625 C 17.125 -48.363281 15.109375 -50.710938 13.421875 -53.453125 C 11.742188 -56.203125 10.90625 -59.441406 10.90625 -63.171875 C 10.90625 -67.867188 12.253906 -71.832031 14.953125 -75.0625 C 17.660156 -78.300781 21.140625 -80.695312 25.390625 -82.25 C 29.648438 -83.800781 34.128906 -84.578125 38.828125 -84.578125 C 41.929688 -84.578125 45.078125 -84.285156 48.265625 -83.703125 C 51.460938 -83.128906 54.035156 -82.445312 55.984375 -81.65625 C 56.785156 -81.300781 57.316406 -80.921875 57.578125 -80.515625 C 57.847656 -80.117188 57.984375 -79.613281 57.984375 -79 L 57.984375 -59.4375 C 57.984375 -59.175781 57.757812 -58.976562 57.3125 -58.84375 C 56.875 -58.707031 56.609375 -58.773438 56.515625 -59.046875 L 55.453125 -61.578125 C 53.234375 -67.160156 50.640625 -71.898438 47.671875 -75.796875 C 44.703125 -79.703125 40.554688 -81.65625 35.234375 -81.65625 C 31.691406 -81.65625 28.789062 -80.632812 26.53125 -78.59375 C 24.269531 -76.550781 23.140625 -73.582031 23.140625 -69.6875 Z M 23.140625 -69.6875 "/></g></g></g><g fill="#c2a878" fill-opacity="1"><g transform="translate(228.676772, 271.701489)"><g><path d="M 96.140625 -83.109375 C 96.316406 -83.109375 96.40625 -82.84375 96.40625 -82.3125 C 96.40625 -81.78125 96.316406 -81.515625 96.140625 -81.515625 C 92.597656 -81.515625 89.804688 -80.117188 87.765625 -77.328125 C 85.734375 -74.535156 84.71875 -70.789062 84.71875 -66.09375 L 84.71875 2 C 84.71875 2.257812 84.515625 2.429688 84.109375 2.515625 C 83.710938 2.609375 83.425781 2.566406 83.25 2.390625 L 20.875 -68.625 L 20.875 -16.890625 C 20.875 -12.191406 21.847656 -8.46875 23.796875 -5.71875 C 25.753906 -2.96875 28.460938 -1.59375 31.921875 -1.59375 C 32.097656 -1.59375 32.1875 -1.328125 32.1875 -0.796875 C 32.1875 -0.265625 32.097656 0 31.921875 0 C 29.429688 0 27.523438 -0.046875 26.203125 -0.140625 L 19.015625 -0.265625 L 10.765625 -0.140625 C 9.265625 -0.046875 7.09375 0 4.25 0 C 3.988281 0 3.859375 -0.265625 3.859375 -0.796875 C 3.859375 -1.328125 3.988281 -1.59375 4.25 -1.59375 C 8.15625 -1.59375 11.238281 -2.96875 13.5 -5.71875 C 15.757812 -8.46875 16.890625 -12.191406 16.890625 -16.890625 L 16.890625 -73.140625 C 13.960938 -76.328125 11.457031 -78.519531 9.375 -79.71875 C 7.289062 -80.914062 5.140625 -81.515625 2.921875 -81.515625 C 2.742188 -81.515625 2.65625 -81.78125 2.65625 -82.3125 C 2.65625 -82.84375 2.742188 -83.109375 2.921875 -83.109375 L 8.515625 -82.984375 C 9.660156 -82.890625 11.34375 -82.84375 13.5625 -82.84375 L 23.671875 -82.984375 C 24.910156 -83.066406 26.414062 -83.109375 28.1875 -83.109375 C 28.894531 -83.109375 29.425781 -82.929688 29.78125 -82.578125 C 30.144531 -82.222656 30.769531 -81.472656 31.65625 -80.328125 C 33.15625 -78.285156 34.21875 -76.910156 34.84375 -76.203125 L 80.859375 -23.140625 L 80.859375 -66.09375 C 80.859375 -70.882812 79.878906 -74.648438 77.921875 -77.390625 C 75.972656 -80.140625 73.269531 -81.515625 69.8125 -81.515625 C 69.632812 -81.515625 69.546875 -81.78125 69.546875 -82.3125 C 69.546875 -82.84375 69.632812 -83.109375 69.8125 -83.109375 L 75.53125 -82.984375 C 78.375 -82.804688 80.769531 -82.71875 82.71875 -82.71875 C 84.488281 -82.71875 86.96875 -82.804688 90.15625 -82.984375 Z M 96.140625 -83.109375 "/></g></g></g><g fill="#c2a878" fill-opacity="1"><g transform="translate(326.411665, 271.701489)"><g><path d="M 95.34375 -1.59375 C 95.789062 -1.59375 96.015625 -1.328125 96.015625 -0.796875 C 96.015625 -0.265625 95.789062 0 95.34375 0 C 93.570312 0 90.828125 -0.0859375 87.109375 -0.265625 C 83.203125 -0.441406 80.410156 -0.53125 78.734375 -0.53125 C 76.515625 -0.53125 73.804688 -0.441406 70.609375 -0.265625 C 67.597656 -0.0859375 65.207031 0 63.4375 0 C 63.082031 0 62.90625 -0.265625 62.90625 -0.796875 C 62.90625 -1.328125 63.082031 -1.59375 63.4375 -1.59375 C 65.738281 -1.59375 67.398438 -1.835938 68.421875 -2.328125 C 69.441406 -2.816406 69.953125 -3.679688 69.953125 -4.921875 C 69.953125 -6.429688 69.066406 -8.957031 67.296875 -12.5 L 58.25 -30.453125 L 25.53125 -30.453125 L 20.34375 -18.890625 C 19.195312 -16.316406 18.625 -13.921875 18.625 -11.703125 C 18.625 -8.515625 19.753906 -6.03125 22.015625 -4.25 C 24.273438 -2.476562 27.3125 -1.59375 31.125 -1.59375 C 31.5625 -1.59375 31.78125 -1.328125 31.78125 -0.796875 C 31.78125 -0.265625 31.5625 0 31.125 0 C 29.519531 0 27.210938 -0.0859375 24.203125 -0.265625 C 20.835938 -0.441406 17.910156 -0.53125 15.421875 -0.53125 C 13.023438 -0.53125 10.144531 -0.441406 6.78125 -0.265625 C 3.769531 -0.0859375 1.332031 0 -0.53125 0 C -0.882812 0 -1.0625 -0.265625 -1.0625 -0.796875 C -1.0625 -1.328125 -0.882812 -1.59375 -0.53125 -1.59375 C 1.945312 -1.59375 4.03125 -2.101562 5.71875 -3.125 C 7.40625 -4.144531 9.085938 -5.960938 10.765625 -8.578125 C 12.453125 -11.191406 14.445312 -15.070312 16.75 -20.21875 L 45.609375 -83.640625 C 45.785156 -83.910156 46.1875 -84.046875 46.8125 -84.046875 C 47.519531 -84.046875 47.914062 -83.910156 48 -83.640625 L 81.25 -18.21875 C 84.351562 -11.925781 86.925781 -7.582031 88.96875 -5.1875 C 91.007812 -2.789062 93.132812 -1.59375 95.34375 -1.59375 Z M 27.265625 -34.171875 L 56.25 -34.171875 L 40.953125 -64.5 Z M 27.265625 -34.171875 "/></g></g></g><g fill="#c2a878" fill-opacity="1"><g transform="translate(421.620069, 271.701489)"><g><path d="M 54.65625 -79.796875 C 54.925781 -80.234375 55.035156 -80.519531 54.984375 -80.65625 C 54.941406 -80.789062 54.609375 -80.859375 53.984375 -80.859375 C 43.878906 -80.859375 36.1875 -80.476562 30.90625 -79.71875 C 25.632812 -78.96875 21.316406 -77.375 17.953125 -74.9375 C 14.585938 -72.5 11.660156 -68.707031 9.171875 -63.5625 C 9.085938 -63.476562 8.910156 -63.4375 8.640625 -63.4375 C 7.847656 -63.4375 7.492188 -63.613281 7.578125 -63.96875 L 12.90625 -87.109375 C 12.90625 -87.191406 13.082031 -87.234375 13.4375 -87.234375 C 14.320312 -87.234375 14.675781 -87.101562 14.5 -86.84375 C 14.40625 -86.570312 14.359375 -86.21875 14.359375 -85.78125 C 14.359375 -84.707031 14.867188 -83.992188 15.890625 -83.640625 C 16.910156 -83.285156 18.972656 -83.109375 22.078125 -83.109375 L 70.609375 -83.109375 C 71.054688 -83.109375 71.390625 -82.882812 71.609375 -82.4375 C 71.828125 -82 71.804688 -81.648438 71.546875 -81.390625 L 25.53125 -3.59375 C 25.175781 -3.144531 25.039062 -2.851562 25.125 -2.71875 C 25.21875 -2.59375 25.53125 -2.53125 26.0625 -2.53125 L 52.921875 -2.53125 C 56.117188 -2.53125 59.222656 -3.347656 62.234375 -4.984375 C 65.253906 -6.628906 67.828125 -8.820312 69.953125 -11.5625 C 72.078125 -14.3125 73.40625 -17.238281 73.9375 -20.34375 C 74.03125 -20.613281 74.296875 -20.75 74.734375 -20.75 C 75.179688 -20.75 75.40625 -20.613281 75.40625 -20.34375 L 73.546875 -1.0625 C 73.546875 -0.800781 73.429688 -0.515625 73.203125 -0.203125 C 72.984375 0.109375 72.695312 0.265625 72.34375 0.265625 C 59.132812 0.0859375 37.898438 0 8.640625 0 C 8.285156 0 8.019531 -0.195312 7.84375 -0.59375 C 7.664062 -1 7.710938 -1.378906 7.984375 -1.734375 Z M 54.65625 -79.796875 "/></g></g></g><g fill="#c2a878" fill-opacity="1"><g transform="translate(502.068548, 271.701489)"><g><path d="M 30.1875 -10.765625 C 30.1875 -8.023438 30.40625 -6.03125 30.84375 -4.78125 C 31.289062 -3.539062 32.15625 -2.695312 33.4375 -2.25 C 34.726562 -1.8125 36.789062 -1.59375 39.625 -1.59375 C 39.894531 -1.59375 40.03125 -1.328125 40.03125 -0.796875 C 40.03125 -0.265625 39.894531 0 39.625 0 C 36.695312 0 34.394531 -0.046875 32.71875 -0.140625 L 22.609375 -0.265625 L 12.765625 -0.140625 C 10.992188 -0.046875 8.597656 0 5.578125 0 C 5.398438 0 5.3125 -0.265625 5.3125 -0.796875 C 5.3125 -1.328125 5.398438 -1.59375 5.578125 -1.59375 C 8.421875 -1.59375 10.503906 -1.8125 11.828125 -2.25 C 13.160156 -2.695312 14.070312 -3.5625 14.5625 -4.84375 C 15.050781 -6.132812 15.296875 -8.109375 15.296875 -10.765625 L 15.296875 -72.34375 C 15.296875 -75 15.050781 -76.945312 14.5625 -78.1875 C 14.070312 -79.4375 13.160156 -80.300781 11.828125 -80.78125 C 10.503906 -81.269531 8.421875 -81.515625 5.578125 -81.515625 C 5.398438 -81.515625 5.3125 -81.78125 5.3125 -82.3125 C 5.3125 -82.84375 5.398438 -83.109375 5.578125 -83.109375 L 12.765625 -82.984375 C 16.847656 -82.804688 20.128906 -82.71875 22.609375 -82.71875 C 25.359375 -82.71875 28.769531 -82.804688 32.84375 -82.984375 L 39.625 -83.109375 C 39.894531 -83.109375 40.03125 -82.84375 40.03125 -82.3125 C 40.03125 -81.78125 39.894531 -81.515625 39.625 -81.515625 C 36.875 -81.515625 34.832031 -81.25 33.5 -80.71875 C 32.175781 -80.1875 31.289062 -79.273438 30.84375 -77.984375 C 30.40625 -76.703125 30.1875 -74.734375 30.1875 -72.078125 Z M 30.1875 -10.765625 "/></g></g></g><g fill="#c2a878" fill-opacity="1"><g transform="translate(547.545168, 271.701489)"><g><path d="M 97.34375 -1.59375 C 97.613281 -1.59375 97.75 -1.328125 97.75 -0.796875 C 97.75 -0.265625 97.613281 0 97.34375 0 C 94.238281 0 91.753906 -0.046875 89.890625 -0.140625 L 79.65625 -0.265625 L 67.6875 -0.140625 C 66.09375 -0.046875 63.921875 0 61.171875 0 C 60.910156 0 60.78125 -0.265625 60.78125 -0.796875 C 60.78125 -1.328125 60.910156 -1.59375 61.171875 -1.59375 C 64.453125 -1.59375 66.84375 -1.8125 68.34375 -2.25 C 69.851562 -2.695312 70.875 -3.539062 71.40625 -4.78125 C 71.9375 -6.03125 72.203125 -8.023438 72.203125 -10.765625 L 72.203125 -41.359375 L 29.25 -41.359375 L 29.25 -10.765625 C 29.25 -8.109375 29.515625 -6.132812 30.046875 -4.84375 C 30.585938 -3.5625 31.609375 -2.695312 33.109375 -2.25 C 34.617188 -1.8125 37.015625 -1.59375 40.296875 -1.59375 C 40.472656 -1.59375 40.5625 -1.328125 40.5625 -0.796875 C 40.5625 -0.265625 40.472656 0 40.296875 0 C 37.191406 0 34.707031 -0.046875 32.84375 -0.140625 L 21.28125 -0.265625 L 11.296875 -0.140625 C 9.523438 -0.046875 7.085938 0 3.984375 0 C 3.804688 0 3.71875 -0.265625 3.71875 -0.796875 C 3.71875 -1.328125 3.804688 -1.59375 3.984375 -1.59375 C 7.085938 -1.59375 9.347656 -1.8125 10.765625 -2.25 C 12.191406 -2.695312 13.171875 -3.5625 13.703125 -4.84375 C 14.234375 -6.132812 14.5 -8.109375 14.5 -10.765625 L 14.5 -72.34375 C 14.5 -75 14.234375 -76.945312 13.703125 -78.1875 C 13.171875 -79.4375 12.21875 -80.300781 10.84375 -80.78125 C 9.46875 -81.269531 7.269531 -81.515625 4.25 -81.515625 C 3.988281 -81.515625 3.859375 -81.78125 3.859375 -82.3125 C 3.859375 -82.84375 3.988281 -83.109375 4.25 -83.109375 L 11.4375 -82.984375 C 15.507812 -82.804688 18.789062 -82.71875 21.28125 -82.71875 C 24.644531 -82.71875 28.546875 -82.804688 32.984375 -82.984375 L 40.296875 -83.109375 C 40.472656 -83.109375 40.5625 -82.84375 40.5625 -82.3125 C 40.5625 -81.78125 40.472656 -81.515625 40.296875 -81.515625 C 37.097656 -81.515625 34.742188 -81.25 33.234375 -80.71875 C 31.734375 -80.1875 30.691406 -79.273438 30.109375 -77.984375 C 29.535156 -76.703125 29.25 -74.734375 29.25 -72.078125 L 29.25 -45.078125 L 72.203125 -45.078125 L 72.203125 -72.078125 C 72.203125 -74.734375 71.9375 -76.703125 71.40625 -77.984375 C 70.875 -79.273438 69.851562 -80.1875 68.34375 -80.71875 C 66.84375 -81.25 64.453125 -81.515625 61.171875 -81.515625 C 60.910156 -81.515625 60.78125 -81.78125 60.78125 -82.3125 C 60.78125 -82.84375 60.910156 -83.109375 61.171875 -83.109375 L 67.6875 -82.984375 C 72.125 -82.804688 76.113281 -82.71875 79.65625 -82.71875 C 82.050781 -82.71875 85.460938 -82.804688 89.890625 -82.984375 L 97.34375 -83.109375 C 97.613281 -83.109375 97.75 -82.84375 97.75 -82.3125 C 97.75 -81.78125 97.613281 -81.515625 97.34375 -81.515625 C 94.332031 -81.515625 92.09375 -81.269531 90.625 -80.78125 C 89.164062 -80.300781 88.191406 -79.4375 87.703125 -78.1875 C 87.210938 -76.945312 86.96875 -75 86.96875 -72.34375 L 86.96875 -10.765625 C 86.96875 -8.109375 87.210938 -6.132812 87.703125 -4.84375 C 88.191406 -3.5625 89.144531 -2.695312 90.5625 -2.25 C 91.976562 -1.8125 94.238281 -1.59375 97.34375 -1.59375 Z M 97.34375 -1.59375 "/></g></g></g><g fill="#c2a878" fill-opacity="1"><g transform="translate(649.136284, 271.701489)"><g><path d="M 95.34375 -1.59375 C 95.789062 -1.59375 96.015625 -1.328125 96.015625 -0.796875 C 96.015625 -0.265625 95.789062 0 95.34375 0 C 93.570312 0 90.828125 -0.0859375 87.109375 -0.265625 C 83.203125 -0.441406 80.410156 -0.53125 78.734375 -0.53125 C 76.515625 -0.53125 73.804688 -0.441406 70.609375 -0.265625 C 67.597656 -0.0859375 65.207031 0 63.4375 0 C 63.082031 0 62.90625 -0.265625 62.90625 -0.796875 C 62.90625 -1.328125 63.082031 -1.59375 63.4375 -1.59375 C 65.738281 -1.59375 67.398438 -1.835938 68.421875 -2.328125 C 69.441406 -2.816406 69.953125 -3.679688 69.953125 -4.921875 C 69.953125 -6.429688 69.066406 -8.957031 67.296875 -12.5 L 58.25 -30.453125 L 25.53125 -30.453125 L 20.34375 -18.890625 C 19.195312 -16.316406 18.625 -13.921875 18.625 -11.703125 C 18.625 -8.515625 19.753906 -6.03125 22.015625 -4.25 C 24.273438 -2.476562 27.3125 -1.59375 31.125 -1.59375 C 31.5625 -1.59375 31.78125 -1.328125 31.78125 -0.796875 C 31.78125 -0.265625 31.5625 0 31.125 0 C 29.519531 0 27.210938 -0.0859375 24.203125 -0.265625 C 20.835938 -0.441406 17.910156 -0.53125 15.421875 -0.53125 C 13.023438 -0.53125 10.144531 -0.441406 6.78125 -0.265625 C 3.769531 -0.0859375 1.332031 0 -0.53125 0 C -0.882812 0 -1.0625 -0.265625 -1.0625 -0.796875 C -1.0625 -1.328125 -0.882812 -1.59375 -0.53125 -1.59375 C 1.945312 -1.59375 4.03125 -2.101562 5.71875 -3.125 C 7.40625 -4.144531 9.085938 -5.960938 10.765625 -8.578125 C 12.453125 -11.191406 14.445312 -15.070312 16.75 -20.21875 L 45.609375 -83.640625 C 45.785156 -83.910156 46.1875 -84.046875 46.8125 -84.046875 C 47.519531 -84.046875 47.914062 -83.910156 48 -83.640625 L 81.25 -18.21875 C 84.351562 -11.925781 86.925781 -7.582031 88.96875 -5.1875 C 91.007812 -2.789062 93.132812 -1.59375 95.34375 -1.59375 Z M 27.265625 -34.171875 L 56.25 -34.171875 L 40.953125 -64.5 Z M 27.265625 -34.171875 "/></g></g></g><g fill="#c2a878" fill-opacity="1"><g transform="translate(744.344711, 271.701489)"><g><path d="M 97.34375 -1.59375 C 97.613281 -1.59375 97.75 -1.328125 97.75 -0.796875 C 97.75 -0.265625 97.613281 0 97.34375 0 C 94.238281 0 91.753906 -0.046875 89.890625 -0.140625 L 79.65625 -0.265625 L 67.6875 -0.140625 C 66.09375 -0.046875 63.921875 0 61.171875 0 C 60.910156 0 60.78125 -0.265625 60.78125 -0.796875 C 60.78125 -1.328125 60.910156 -1.59375 61.171875 -1.59375 C 64.453125 -1.59375 66.84375 -1.8125 68.34375 -2.25 C 69.851562 -2.695312 70.875 -3.539062 71.40625 -4.78125 C 71.9375 -6.03125 72.203125 -8.023438 72.203125 -10.765625 L 72.203125 -41.359375 L 29.25 -41.359375 L 29.25 -10.765625 C 29.25 -8.109375 29.515625 -6.132812 30.046875 -4.84375 C 30.585938 -3.5625 31.609375 -2.695312 33.109375 -2.25 C 34.617188 -1.8125 37.015625 -1.59375 40.296875 -1.59375 C 40.472656 -1.59375 40.5625 -1.328125 40.5625 -0.796875 C 40.5625 -0.265625 40.472656 0 40.296875 0 C 37.191406 0 34.707031 -0.046875 32.84375 -0.140625 L 21.28125 -0.265625 L 11.296875 -0.140625 C 9.523438 -0.046875 7.085938 0 3.984375 0 C 3.804688 0 3.71875 -0.265625 3.71875 -0.796875 C 3.71875 -1.328125 3.804688 -1.59375 3.984375 -1.59375 C 7.085938 -1.59375 9.347656 -1.8125 10.765625 -2.25 C 12.191406 -2.695312 13.171875 -3.5625 13.703125 -4.84375 C 14.234375 -6.132812 14.5 -8.109375 14.5 -10.765625 L 14.5 -72.34375 C 14.5 -75 14.234375 -76.945312 13.703125 -78.1875 C 13.171875 -79.4375 12.21875 -80.300781 10.84375 -80.78125 C 9.46875 -81.269531 7.269531 -81.515625 4.25 -81.515625 C 3.988281 -81.515625 3.859375 -81.78125 3.859375 -82.3125 C 3.859375 -82.84375 3.988281 -83.109375 4.25 -83.109375 L 11.4375 -82.984375 C 15.507812 -82.804688 18.789062 -82.71875 21.28125 -82.71875 C 24.644531 -82.71875 28.546875 -82.804688 32.984375 -82.984375 L 40.296875 -83.109375 C 40.472656 -83.109375 40.5625 -82.84375 40.5625 -82.3125 C 40.5625 -81.78125 40.472656 -81.515625 40.296875 -81.515625 C 37.097656 -81.515625 34.742188 -81.25 33.234375 -80.71875 C 31.734375 -80.1875 30.691406 -79.273438 30.109375 -77.984375 C 29.535156 -76.703125 29.25 -74.734375 29.25 -72.078125 L 29.25 -45.078125 L 72.203125 -45.078125 L 72.203125 -72.078125 C 72.203125 -74.734375 71.9375 -76.703125 71.40625 -77.984375 C 70.875 -79.273438 69.851562 -80.1875 68.34375 -80.71875 C 66.84375 -81.25 64.453125 -81.515625 61.171875 -81.515625 C 60.910156 -81.515625 60.78125 -81.78125 60.78125 -82.3125 C 60.78125 -82.84375 60.910156 -83.109375 61.171875 -83.109375 L 67.6875 -82.984375 C 72.125 -82.804688 76.113281 -82.71875 79.65625 -82.71875 C 82.050781 -82.71875 85.460938 -82.804688 89.890625 -82.984375 L 97.34375 -83.109375 C 97.613281 -83.109375 97.75 -82.84375 97.75 -82.3125 C 97.75 -81.78125 97.613281 -81.515625 97.34375 -81.515625 C 94.332031 -81.515625 92.09375 -81.269531 90.625 -80.78125 C 89.164062 -80.300781 88.191406 -79.4375 87.703125 -78.1875 C 87.210938 -76.945312 86.96875 -75 86.96875 -72.34375 L 86.96875 -10.765625 C 86.96875 -8.109375 87.210938 -6.132812 87.703125 -4.84375 C 88.191406 -3.5625 89.144531 -2.695312 90.5625 -2.25 C 91.976562 -1.8125 94.238281 -1.59375 97.34375 -1.59375 Z M 97.34375 -1.59375 "/></g></g></g><g fill="#c2a878" fill-opacity="1"><g transform="translate(845.935782, 271.701489)"><g/></g></g><g fill="#c2a878" fill-opacity="1"><g transform="translate(877.051395, 271.701489)"><g><path d="M 96.140625 -83.109375 C 96.316406 -83.109375 96.40625 -82.84375 96.40625 -82.3125 C 96.40625 -81.78125 96.316406 -81.515625 96.140625 -81.515625 C 92.597656 -81.515625 89.804688 -80.117188 87.765625 -77.328125 C 85.734375 -74.535156 84.71875 -70.789062 84.71875 -66.09375 L 84.71875 2 C 84.71875 2.257812 84.515625 2.429688 84.109375 2.515625 C 83.710938 2.609375 83.425781 2.566406 83.25 2.390625 L 20.875 -68.625 L 20.875 -16.890625 C 20.875 -12.191406 21.847656 -8.46875 23.796875 -5.71875 C 25.753906 -2.96875 28.460938 -1.59375 31.921875 -1.59375 C 32.097656 -1.59375 32.1875 -1.328125 32.1875 -0.796875 C 32.1875 -0.265625 32.097656 0 31.921875 0 C 29.429688 0 27.523438 -0.046875 26.203125 -0.140625 L 19.015625 -0.265625 L 10.765625 -0.140625 C 9.265625 -0.046875 7.09375 0 4.25 0 C 3.988281 0 3.859375 -0.265625 3.859375 -0.796875 C 3.859375 -1.328125 3.988281 -1.59375 4.25 -1.59375 C 8.15625 -1.59375 11.238281 -2.96875 13.5 -5.71875 C 15.757812 -8.46875 16.890625 -12.191406 16.890625 -16.890625 L 16.890625 -73.140625 C 13.960938 -76.328125 11.457031 -78.519531 9.375 -79.71875 C 7.289062 -80.914062 5.140625 -81.515625 2.921875 -81.515625 C 2.742188 -81.515625 2.65625 -81.78125 2.65625 -82.3125 C 2.65625 -82.84375 2.742188 -83.109375 2.921875 -83.109375 L 8.515625 -82.984375 C 9.660156 -82.890625 11.34375 -82.84375 13.5625 -82.84375 L 23.671875 -82.984375 C 24.910156 -83.066406 26.414062 -83.109375 28.1875 -83.109375 C 28.894531 -83.109375 29.425781 -82.929688 29.78125 -82.578125 C 30.144531 -82.222656 30.769531 -81.472656 31.65625 -80.328125 C 33.15625 -78.285156 34.21875 -76.910156 34.84375 -76.203125 L 80.859375 -23.140625 L 80.859375 -66.09375 C 80.859375 -70.882812 79.878906 -74.648438 77.921875 -77.390625 C 75.972656 -80.140625 73.269531 -81.515625 69.8125 -81.515625 C 69.632812 -81.515625 69.546875 -81.78125 69.546875 -82.3125 C 69.546875 -82.84375 69.632812 -83.109375 69.8125 -83.109375 L 75.53125 -82.984375 C 78.375 -82.804688 80.769531 -82.71875 82.71875 -82.71875 C 84.488281 -82.71875 86.96875 -82.804688 90.15625 -82.984375 Z M 96.140625 -83.109375 "/></g></g></g><g fill="#c2a878" fill-opacity="1"><g transform="translate(974.786311, 271.701489)"><g><path d="M 48.671875 1.59375 C 40.429688 1.59375 33.09375 -0.332031 26.65625 -4.1875 C 20.226562 -8.039062 15.265625 -13.269531 11.765625 -19.875 C 8.265625 -26.476562 6.515625 -33.679688 6.515625 -41.484375 C 6.515625 -50.617188 8.816406 -58.441406 13.421875 -64.953125 C 18.035156 -71.472656 23.953125 -76.375 31.171875 -79.65625 C 38.398438 -82.9375 45.785156 -84.578125 53.328125 -84.578125 C 61.742188 -84.578125 69.144531 -82.601562 75.53125 -78.65625 C 81.914062 -74.71875 86.8125 -69.507812 90.21875 -63.03125 C 93.632812 -56.5625 95.34375 -49.691406 95.34375 -42.421875 C 95.34375 -34.359375 93.210938 -26.957031 88.953125 -20.21875 C 84.703125 -13.476562 79.007812 -8.15625 71.875 -4.25 C 64.738281 -0.351562 57.003906 1.59375 48.671875 1.59375 Z M 53.0625 -1.734375 C 58.03125 -1.734375 62.484375 -3.171875 66.421875 -6.046875 C 70.367188 -8.929688 73.453125 -13.144531 75.671875 -18.6875 C 77.890625 -24.226562 79 -30.851562 79 -38.5625 C 79 -46.71875 77.753906 -54.007812 75.265625 -60.4375 C 72.785156 -66.863281 69.195312 -71.894531 64.5 -75.53125 C 59.800781 -79.164062 54.300781 -80.984375 48 -80.984375 C 39.9375 -80.984375 33.734375 -77.945312 29.390625 -71.875 C 25.046875 -65.800781 22.875 -57.3125 22.875 -46.40625 C 22.875 -37.8125 24.179688 -30.125 26.796875 -23.34375 C 29.410156 -16.5625 33 -11.265625 37.5625 -7.453125 C 42.132812 -3.640625 47.300781 -1.734375 53.0625 -1.734375 Z M 53.0625 -1.734375 "/></g></g></g><g fill="#c2a878" fill-opacity="1"><g transform="translate(1076.643342, 271.701489)"><g><path d="M 48.671875 1.59375 C 40.429688 1.59375 33.09375 -0.332031 26.65625 -4.1875 C 20.226562 -8.039062 15.265625 -13.269531 11.765625 -19.875 C 8.265625 -26.476562 6.515625 -33.679688 6.515625 -41.484375 C 6.515625 -50.617188 8.816406 -58.441406 13.421875 -64.953125 C 18.035156 -71.472656 23.953125 -76.375 31.171875 -79.65625 C 38.398438 -82.9375 45.785156 -84.578125 53.328125 -84.578125 C 61.742188 -84.578125 69.144531 -82.601562 75.53125 -78.65625 C 81.914062 -74.71875 86.8125 -69.507812 90.21875 -63.03125 C 93.632812 -56.5625 95.34375 -49.691406 95.34375 -42.421875 C 95.34375 -34.359375 93.210938 -26.957031 88.953125 -20.21875 C 84.703125 -13.476562 79.007812 -8.15625 71.875 -4.25 C 64.738281 -0.351562 57.003906 1.59375 48.671875 1.59375 Z M 53.0625 -1.734375 C 58.03125 -1.734375 62.484375 -3.171875 66.421875 -6.046875 C 70.367188 -8.929688 73.453125 -13.144531 75.671875 -18.6875 C 77.890625 -24.226562 79 -30.851562 79 -38.5625 C 79 -46.71875 77.753906 -54.007812 75.265625 -60.4375 C 72.785156 -66.863281 69.195312 -71.894531 64.5 -75.53125 C 59.800781 -79.164062 54.300781 -80.984375 48 -80.984375 C 39.9375 -80.984375 33.734375 -77.945312 29.390625 -71.875 C 25.046875 -65.800781 22.875 -57.3125 22.875 -46.40625 C 22.875 -37.8125 24.179688 -30.125 26.796875 -23.34375 C 29.410156 -16.5625 33 -11.265625 37.5625 -7.453125 C 42.132812 -3.640625 47.300781 -1.734375 53.0625 -1.734375 Z M 53.0625 -1.734375 "/></g></g></g><g fill="#c2a878" fill-opacity="1"><g transform="translate(1178.50042, 271.701489)"><g><path d="M 94.15625 -1.59375 C 94.332031 -1.59375 94.421875 -1.328125 94.421875 -0.796875 C 94.421875 -0.265625 94.332031 0 94.15625 0 L 70.484375 0 C 68.535156 0 64.898438 -3.519531 59.578125 -10.5625 C 54.253906 -17.613281 47.828125 -27.476562 40.296875 -40.15625 C 39.585938 -40.070312 38.566406 -40.03125 37.234375 -40.03125 C 33.773438 -40.03125 31.335938 -40.070312 29.921875 -40.15625 L 29.921875 -10.765625 C 29.921875 -8.023438 30.140625 -6.03125 30.578125 -4.78125 C 31.023438 -3.539062 31.890625 -2.695312 33.171875 -2.25 C 34.460938 -1.8125 36.523438 -1.59375 39.359375 -1.59375 C 39.535156 -1.59375 39.625 -1.328125 39.625 -0.796875 C 39.625 -0.265625 39.535156 0 39.359375 0 C 36.429688 0 34.128906 -0.046875 32.453125 -0.140625 L 22.34375 -0.265625 L 12.640625 -0.140625 C 10.859375 -0.046875 8.460938 0 5.453125 0 C 5.179688 0 5.046875 -0.265625 5.046875 -0.796875 C 5.046875 -1.328125 5.179688 -1.59375 5.453125 -1.59375 C 8.285156 -1.59375 10.34375 -1.8125 11.625 -2.25 C 12.914062 -2.695312 13.804688 -3.5625 14.296875 -4.84375 C 14.785156 -6.132812 15.03125 -8.109375 15.03125 -10.765625 L 15.03125 -72.34375 C 15.03125 -75 14.804688 -76.945312 14.359375 -78.1875 C 13.921875 -79.4375 13.035156 -80.300781 11.703125 -80.78125 C 10.367188 -81.269531 8.328125 -81.515625 5.578125 -81.515625 C 5.398438 -81.515625 5.3125 -81.78125 5.3125 -82.3125 C 5.3125 -82.84375 5.398438 -83.109375 5.578125 -83.109375 L 12.640625 -82.984375 C 16.710938 -82.804688 19.945312 -82.71875 22.34375 -82.71875 C 25.351562 -82.71875 28.5 -82.847656 31.78125 -83.109375 C 32.9375 -83.203125 34.378906 -83.289062 36.109375 -83.375 C 37.835938 -83.46875 39.765625 -83.515625 41.890625 -83.515625 C 49.953125 -83.515625 56.203125 -82.03125 60.640625 -79.0625 C 65.078125 -76.09375 67.296875 -71.945312 67.296875 -66.625 C 67.296875 -61.75 65.960938 -57.335938 63.296875 -53.390625 C 60.640625 -49.441406 57.09375 -46.273438 52.65625 -43.890625 C 59.75 -33.242188 65.6875 -24.90625 70.46875 -18.875 C 75.257812 -12.851562 79.515625 -8.46875 83.234375 -5.71875 C 86.960938 -2.96875 90.601562 -1.59375 94.15625 -1.59375 Z M 29.921875 -43.890625 C 32.046875 -43.535156 34.617188 -43.359375 37.640625 -43.359375 C 42.773438 -43.359375 46.472656 -44.796875 48.734375 -47.671875 C 50.992188 -50.554688 52.125 -55.191406 52.125 -61.578125 C 52.125 -68.835938 51.0625 -73.84375 48.9375 -76.59375 C 46.8125 -79.34375 43.753906 -80.71875 39.765625 -80.71875 C 36.210938 -80.71875 33.679688 -80.050781 32.171875 -78.71875 C 30.671875 -77.394531 29.921875 -75.179688 29.921875 -72.078125 Z M 29.921875 -43.890625 "/></g></g></g></svg>